<?xml version="1.0" encoding="utf-8"?>
<!-- Generator: Adobe Illustrator 16.0.0, SVG Export Plug-In . SVG Version: 6.00 Build 0)  -->
<!DOCTYPE svg PUBLIC "-//W3C//DTD SVG 1.1//EN" "http://www.w3.org/Graphics/SVG/1.1/DTD/svg11.dtd">
<svg version="1.1" id="Layer_1" xmlns="http://www.w3.org/2000/svg" xmlns:xlink="http://www.w3.org/1999/xlink" x="0px" y="0px"
	 width="398.332px" height="398.334px" viewBox="-0.647 -1.777 398.332 398.334"
	 enable-background="new -0.647 -1.777 398.332 398.334" xml:space="preserve">
<g>
	<title>Layer 1</title>
	<g id="svg_23">
		<g id="svg_1">
			<path fill="#FFFFFF" d="M225.093,290.536c-55.017,11.954-109.501-23.081-121.455-78.099
				c-11.954-55.015,23.079-109.501,78.095-121.456c55.021-11.955,109.501,23.08,121.455,78.097
				C315.143,224.097,280.113,278.581,225.093,290.536z M183.106,97.303c-51.53,11.197-84.344,62.229-73.147,113.761
				c11.197,51.529,62.229,84.346,113.76,73.148s84.352-62.229,73.153-113.762C285.676,118.919,234.637,86.106,183.106,97.303z"/>
		</g>
		<g id="svg_2">
			<path fill="#2C9661" d="M223.373,242.867c0.948,1.715,2.039,3.205,3.557,5.754c-2.807-0.545-5.167-0.795-7.241-1.5
				c-2.031-0.52-3.958-1.441-5.743-2.592c-8.847-5.371-16.795-3.068-24.534,2.837c-7.412,5.64-15.354,10.63-23.031,15.942
				c-0.444-0.287-0.706-0.615-1.156-0.899c1.765-2.494,3.224-5.498,5.245-7.669c2.642-2.875,5.768-5.283,8.81-8.055
				c4.172-3.785,7.183-8.473,7.862-14.188c0.461-3.173-0.973-5.355-3.244-6.977c-2.494-1.764-5.117-2.344-8.032-0.75
				c-4.635,2.545-8.963,5.594-13.855,7.809c-7.384,3.141-15.104,5.588-23.115,8.48c-0.558-2.569-0.877-4.035-1.314-6.051
				c9.316-3.943,18.397-8.988,25.071-17.156c-0.265-0.324-0.385-0.877-0.648-1.201c-3.059,1.814-6.424,3.121-8.997,5.406
				c-6.315,5.401-13.106,8.607-21.39,8.488c-1.544-0.047-3.171-0.461-4.796-0.878c0.821-1.522,1.236-3.147,2.359-4.159
				c7.396-6.6,14.833-13.012,22.235-19.613c0.796-0.748,1.855-1.17,2.244-2.025c0.494-1.258,0.176-2.725,0.307-3.904
				c-1.144,0.055-2.362-0.256-3.239,0.129c-2.408,1.289-4.693,3.131-7.284,4.461c-4.633,2.541-7.11,1.738-10.321-3.324
				c6.129-5.362,12.403-10.952,18.678-16.538c4.168-3.785,4.839-7.771,1.744-12.281c-4.134,1.281-8.416,2.788-13.062,4.373
				c0.588-4.352,3.087-7.006,5.946-9.74c5.909-5.506,11.734-11.381,17.418-17.031c0.797-0.748,1.331-1.825,2.089-2.757
				c-0.263-0.327-0.485-0.471-0.565-0.837c-1.205,0.646-2.408,1.291-3.653,1.754c-0.691,0.342-1.425,0.5-2.159,0.661
				c-0.199-0.917-0.62-1.976-0.375-2.605c2.296-3.571,4.817-6.999,7.518-10.465c-3.188-1.417-1.976-3.793,0.193-6.185
				c1.84-2.127,3.906-4.112,5.524-6.384c2.806-3.873,5.206-7.85,8.221-12.537c2.334,1.029,5.808,2.001,8.528,3.906
				c5.697,4.139,12.021,5.837,18.873,6.459c4.127,0.448,8.438,0.855,12.4,2.298c3.291,1.013,5.946,3.507,9.883,5.724
				c-3.284,1.674-5.548,2.741-8.465,4.334c5.938,0.822,11.106,1.619,15.114,5.932c-7.048,1.147-14.028-2.711-20.374,0.78
				c-0.065,0.589-0.128,1.179-0.373,1.808c14.586,5.277,29.135,10.372,43.531,15.692c-0.063,0.59-0.125,1.179-0.189,1.769
				c-5.841,0.501-11.689,1.005-17.308,1.649c-1.321,0.094-2.67,0.963-3.913,1.426c0.119,0.551,0.199,0.916,0.318,1.467
				c5.453,0.352,10.943,0.886,16.397,1.236c2.542,0.215,5.006,0.064,7.364,0.32c0.995,0.168,1.707,0.78,2.6,1.354
				c-0.613,0.71-1.149,1.786-2.064,1.985c-5.155,1.887-10.168,3.552-15.368,5.258c-1.429,0.504-2.669,0.965-3.978,2.017
				c6.353-0.804,12.722-0.651,18.55,2.304c5.562,2.631,11.7,4.371,16.276,9.521c-5.062,3.209-9.725,3.842-14.706,3.003
				c-4.207-0.813-7.268,1.005-10.16,4.511c12.653,1.666,25.017,3.781,34.739,13.192c-4.291,3.234-8.562,3.01-13.242,2.684
				c-8.257-0.895-16.37-2.012-24.51-2.355c-6.406-0.336-12.942,0.506-19.416,0.762c-4.197,0.143-7.306,3.506-6.311,8.088
				c1.872,8.613,6.909,15.012,15.074,18.998c3.634,1.705,7.163,3.82,11.1,6.035c-3.817,2.75-7.174,2.327-10.754,1.762
				c-5.387-0.941-10.773-1.881-16.164-2.821C223.621,242.236,223.518,242.643,223.373,242.867L223.373,242.867z M155.532,194.825
				c-0.064,0.59-0.168,0.996-0.048,1.547c1.521,0.821,3.508,2.887,4.566,2.463c3.69-1.568,7.225-3.873,10.794-5.991
				c0.509-0.304,0.741-1.89,0.399-2.583c-0.119-0.551-1.563-1.004-2.295-0.845C164.526,191.145,160.143,193.056,155.532,194.825z
				 M248.51,194.206c2.977-0.453,4.712-2.173,4.418-4.416c-0.375-2.606-3.863-4.535-7.714-3.698
				c-2.383,0.519-4.766,1.036-4.863,4.129C240.278,192.539,244.988,194.782,248.51,194.206z M234.236,192.124l-0.039-0.182
				c0.549-0.119,1.138-0.057,1.467-0.319c1.265-1.235,2.35-2.432,3.616-3.666c-1.378-1.044-3.139-2.966-4.24-2.726
				c-3.481,0.756-6.765,2.429-10.129,3.734c-0.51,0.305-1.003,1.562-0.701,2.074c0.119,0.549,1.378,1.043,1.97,1.107
				C228.902,192.323,231.549,192.134,234.236,192.124z M170.016,169.601c-3.045-1.641-4.542-3.236-6.271-3.244
				c-3.458-0.016-7.626,3.769-6.576,5.076c1.395,2,4.171,5.045,5.595,4.543C165.291,175.236,167.198,172.518,170.016,169.601z
				 M185.812,207.83c-0.756-3.482-3.817-6.082-7.275-6.098c-0.956,0.016-2.202,0.479-2.812,1.188
				c-0.473,0.484-0.154,1.951,0.37,2.607c1.843,2.285,3.825,4.348,6.033,6.555c0.71,0.615,2.191,1.252,2.48,0.805
				c0.65-0.527,1.146-1.785,1.316-2.781C186.091,209.113,185.709,208.236,185.812,207.83L185.812,207.83z M181.314,147.371
				c-1.77-0.191-3.881-1.076-4.35-0.59c-2.311,2.614-4.36,5.555-6.188,8.64c-0.429,0.668-0.069,2.319,0.375,2.606
				c0.853,0.39,2.357,0.255,3.012-0.271c2.21-2.207,4.195-4.559,6.179-6.908C180.773,150.176,180.756,149.22,181.314,147.371z
				 M216.142,159.194c0.611-0.709,2.47-1.881,2.558-3.242c0.296-2.176-3.683-4.576-6.135-3.467
				c-1.935,0.803-5.061,3.209-4.821,4.311C208.578,160.646,212.274,159.075,216.142,159.194z M204.705,179.918
				c-1.122-3.404-2.169-6.44-5.386-5.356c-1.47,0.319-3.046,2.773-3.24,4.543c-0.336,1.993,4.418,4.415,6.905,3.49
				C204.004,181.989,204.459,180.546,204.705,179.918z M203.501,207.058c0.571-0.895,1.8-2.312,1.847-3.857
				c0.112-2.135-4.676-4.745-6.719-3.529c-0.836,0.564-1.577,2.451-1.481,3.777C197.563,206.238,199.427,207.753,203.501,207.058
				L203.501,207.058z M189.125,161.226c2.039-1.211,4.019-1.834,5.612-3.332c0.798-0.747,0.662-2.252,0.972-3.475
				c-1.037-0.352-2.334-1.027-3.211-0.646c-1.936,0.805-3.609,1.936-5.242,3.252c-0.798,0.749-0.924,1.928-1.459,3.006
				C186.87,160.563,188.089,160.873,189.125,161.226L189.125,161.226z M171.549,159.86c-1.617,2.271-2.623,3.834-3.77,5.619
				c1.562,1.005,3.02,2.416,4.606,2.646c1.952,0.152,4.577-3.682,3.627-5.396C175.551,161.487,173.741,161.112,171.549,159.86z
				 M188.552,140.04c-3.81,1.02-7.47,4.502-6.56,6.032c0.343,0.693,2.193,1.251,3.292,1.013c2.972-0.454,6.08-3.816,5.317-5.57
				C190.22,140.637,188.775,140.182,188.552,140.04z M233.377,162.554c0.224,0.143,0.629,0.246,0.854,0.39
				c0.532-1.075,0.885-2.111,1.418-3.188c-2.401-0.438-4.798-0.877-7.156-1.132c-0.409-0.104-1.004,1.561-1.395,2.414
				c2.031,0.518,3.879,1.077,5.91,1.594C233.196,162.593,233.377,162.554,233.377,162.554L233.377,162.554z M198.804,158.931
				c3.034-1.045,6.414-1.395,6.536-5.26c0.063-0.59-1.947-1.881-3.085-1.824C199.933,151.771,198.332,155.002,198.804,158.931z
				 M195.505,206.494c-1.904-1.699-3.507-2.887-4.966-4.301c-0.494,1.262-1.395,2.416-1.155,3.516
				c0.071,2.096,1.138,4.359,3.744,3.984C193.861,209.537,194.318,208.095,195.505,206.494z M190.662,171.835
				c-1.067,2.15-2.581,4.016-2.279,4.525c1.013,1.125,2.717,1.906,4.241,2.727c0.677-1.299,1.903-2.717,1.664-3.817
				C194.009,173.987,192.306,173.206,190.662,171.835z M197.511,143.276c1.331-1.825,2.23-2.98,2.951-4.097
				c-1.259-0.494-2.493-1.761-3.596-1.521c-1.281,0.278-2.064,1.983-3.002,2.955C194.979,141.33,195.909,142.088,197.511,143.276
				L197.511,143.276z M186.118,181.846c0.209-0.815,0.637-1.483,0.847-2.296c-1.444-0.454-2.742-1.131-4.105-1.219
				s-2.709,0.779-3.994,1.059c0.972,0.941,1.843,2.289,3.062,2.6C183.185,182.483,184.795,181.939,186.118,181.846z
				 M201.759,139.857c0.119,0.55,0.198,0.917,0.318,1.467c2.056-0.255,4.296-0.55,6.355-0.806c-0.199-0.917-0.254-2.057-0.889-2.302
				C205.092,136.637,203.273,137.992,201.759,139.857z M172.702,140.412c-0.409-0.104-0.854-0.39-1.264-0.493
				c-1.369,1.641-2.923,3.322-4.295,4.965c0.303,0.51,0.565,0.837,1.053,1.307c1.202-0.646,2.813-1.187,3.712-2.342
				C172.523,143.137,172.389,141.631,172.702,140.412L172.702,140.412z"/>
		</g>
		<g id="svg_3">
			<path fill="#FFFFFF" d="M240.804,391.994C133.499,415.31,27.231,346.979,3.916,239.674
				C-19.399,132.369,48.931,26.103,156.235,2.787c107.305-23.315,213.57,45.014,236.886,152.319
				C416.438,262.411,348.108,368.678,240.804,391.994z M158.982,15.429C58.65,37.23-5.242,136.594,16.559,236.927
				C38.36,337.261,137.724,401.152,238.057,379.351s164.223-121.164,142.421-221.499C358.677,57.52,259.315-6.372,158.982,15.429z"
				/>
		</g>
		<g id="svg_4">
			<path fill="#FFFFFF" d="M64.606,239.349c-11.949,0.678-10.978,19.285,1.155,18.57C77.89,257.199,76.553,238.673,64.606,239.349z"
				/>
		</g>
		<g id="svg_5">
			<path fill="#FFFFFF" d="M345.833,178.243c-11.943,0.676-10.97,19.283,1.158,18.568
				C358.938,196.132,357.966,177.526,345.833,178.243z"/>
		</g>
		<g id="svg_6">
			<g id="svg_7">
				<path fill="#FFFFFF" d="M49.178,183.952c-2.916,1.594-4.534,3.863-4.512,7.506c-0.159,3.684,2.487,7.907,6.535,7.988
					c3.684,0.16,5.569-3.514,6.846-6.479l1.381-3.373c2.798-6.559,6.504-11.589,14.235-11.35c8.467,0.081,14.54,6.826,14.272,15.33
					c-0.094,7.51-5.922,13.383-13.416,14.243l-1.091-5.904c5.23,0.205,8.955-3.867,9.018-8.872c0.063-5.006-4.007-8.73-9.016-8.793
					c-5.005-0.065-7.221,3.872-9.031,7.915l-1.418,3.187c-2.305,5.301-5.5,10.028-12.054,9.915
					c-7.509-0.096-12.074-6.975-11.857-13.934c0.023-5.188,2.75-9.43,7.38-11.971L49.178,183.952z"/>
				<path fill="#FFFFFF" d="M76.471,209.134c-0.575,0.125-1.165,0.223-1.764,0.291l-1.501,0.172l-1.734-9.381l2.022,0.082
					c4.103,0.154,7.282-3.055,7.336-7.278c0.051-3.958-3.209-7.102-7.42-7.154c-3.652-0.045-5.562,2.557-7.534,6.958l-1.416,3.185
					c-1.854,4.262-4.729,9.333-10.503,10.586c-0.963,0.209-1.992,0.305-3.057,0.289c-3.551-0.047-6.729-1.428-9.187-3.996
					c-2.844-2.973-4.397-7.204-4.26-11.606c0.024-5.607,3.021-10.485,8.219-13.34l1.371-0.752l4.381,7.377l-1.472,0.804
					c-2.589,1.416-3.688,3.233-3.669,6.077c-0.075,1.791,0.609,3.633,1.787,4.887c0.625,0.666,1.681,1.466,3.163,1.494
					c0.336,0.014,0.624-0.01,0.896-0.068c2.036-0.441,3.383-2.994,4.432-5.432l1.372-3.346c2.07-4.855,5.279-10.588,11.854-12.018
					c1.223-0.266,2.545-0.379,3.928-0.335c4.367,0.04,8.405,1.745,11.334,4.796c3.053,3.181,4.653,7.514,4.506,12.201
					C89.463,201.091,84.081,207.48,76.471,209.134z M75.355,203.429l0.468,2.533c6.108-1.344,10.423-6.441,10.496-12.405
					c0.121-3.844-1.159-7.344-3.603-9.891c-2.322-2.418-5.542-3.77-9.067-3.803c-1.153-0.037-2.211,0.053-3.176,0.263
					c-4.053,0.88-6.912,3.902-9.555,10.103l-1.375,3.352c-0.912,2.123-2.789,6.485-6.727,7.34h-0.001
					c-0.542,0.117-1.108,0.166-1.684,0.141c-2.025-0.041-3.913-0.91-5.419-2.516c-1.779-1.894-2.775-4.571-2.662-7.158
					c-0.023-3.395,1.267-6.031,3.932-7.963l-1.084-1.826c-3.355,2.326-5.193,5.734-5.211,9.739c-0.11,3.534,1.146,6.997,3.362,9.314
					c1.844,1.924,4.229,2.961,6.898,2.996c4.731,0.078,7.722-2.443,10.549-8.943l1.425-3.202c1.646-3.676,3.78-7.674,8.304-8.657
					c0.704-0.153,1.454-0.226,2.226-0.216c6.024,0.078,10.686,4.66,10.611,10.43C83.999,198.331,80.341,202.691,75.355,203.429z"/>
			</g>
			<g id="svg_8">
				<path fill="#FFFFFF" d="M70.076,137.879l-17.837-6.106l1.856-5.587l44.413,15.308l-1.857,5.588l-21.354-7.264l-7.301,21.169
					l21.354,7.262l-1.86,5.588L43.08,158.528l1.857-5.586l17.837,6.107L70.076,137.879L70.076,137.879z"/>
				<path fill="#FFFFFF" d="M88.506,175.897L41.04,159.535l2.876-8.654l17.854,6.114l6.248-18.112l-17.82-6.1l2.879-8.662
					l47.47,16.363l-2.875,8.65l-21.37-7.27l-6.248,18.113l21.337,7.256L88.506,175.897z M45.119,157.521l41.352,14.254l0.836-2.512
					l-21.37-7.269l8.356-24.227l21.337,7.257l0.84-2.524l-41.354-14.253l-0.836,2.514l17.855,6.114l-8.358,24.226l-17.82-6.102
					L45.119,157.521z"/>
			</g>
			<g id="svg_9">
				<path fill="#FFFFFF" d="M100.239,117.951l5.419,11.686l-4.152,4.742L79.17,85.475l51.615,14.894l-4.151,4.742l-12.315-3.66
					L100.239,117.951z M88.877,93.926l8.846,18.621l10.904-12.544L88.877,93.926z"/>
				<path fill="#FFFFFF" d="M101.074,137.327L76.236,82.945l57.442,16.576l-6.512,7.437l-12.3-3.657l-12.725,14.91l5.426,11.7
					L101.074,137.327z M82.103,88.006l19.835,43.425l1.811-2.067l-5.412-11.674l15.437-18.088l12.329,3.663l1.792-2.046
					L82.103,88.006z M97.321,115.473L85.838,91.299l25.641,7.889L97.321,115.473z M91.914,96.552l6.209,13.067l7.651-8.805
					L91.914,96.552z"/>
			</g>
			<g id="svg_10">
				<path fill="#FFFFFF" d="M133.241,84.286l-3.771-36.809l27.456,24.751l-3.393-35.932l5.691-2.964l4.617,52.176L136.608,60.9
					l3.736,36.626L100.62,63.152l5.692-2.964L133.241,84.286L133.241,84.286z"/>
				<path fill="#FFFFFF" d="M140.54,97.718L97.761,62.817l8.797-4.581l24.648,22.059l-3.776-36.831l27.494,24.784l-3.105-32.882
					l8.805-4.585l3.154,54.019l-25.133-19.879L140.54,97.718z M103.479,63.486l34.843,30.15l-3.75-36.756l27.295,24.663
					l-4.041-45.662l-2.582,1.346l3.682,38.982l-27.419-24.719l3.769,36.787l-29.208-26.139L103.479,63.486z"/>
			</g>
			<g id="svg_11">
				<path fill="#FFFFFF" d="M181.977,67.361l-4.473,12.108l-6.207,0.58l18.408-50.459l26.315,46.885l-6.206,0.581l-6.295-11.303
					L181.977,67.361z M190.767,42.412l-6.709,19.504l16.616-1.306L190.767,42.412z"/>
				<path fill="#FFFFFF" d="M218.645,77.855l-9.733,0.91l-6.306-11.321l-19.474,1.454l-4.47,12.09l-9.767,0.912l20.491-56.17
					L218.645,77.855z M210.713,75.347l2.679-0.251L190.017,33.45L173.692,78.2l2.65-0.249l4.481-12.127l23.603-1.763L210.713,75.347
					z M203.281,62.029l-21.557,1.695l8.705-25.309L203.281,62.029z M186.388,60.112l11.67-0.917l-6.959-12.783L186.388,60.112z"/>
			</g>
			<g id="svg_12">
				<path fill="#FFFFFF" d="M251.317,86.66l-6.767-1.984l-7.848-22.87l-2.254-0.661l-5.461,19.041l-5.548-1.674l12.872-45.035
					l6.766,1.987c4.066,1.037,8.212,2.438,11.346,5.405c3.221,3.332,4.076,8.138,2.892,12.427
					c-1.84,6.543-7.698,10.504-14.452,9.476L251.317,86.66z M235.546,56.489l1.849,0.559c5.728,1.635,12.216,2.337,14.307-4.836
					c1.943-6.949-4.473-9.97-10.016-11.646l-1.441-0.456L235.546,56.489z"/>
				<path fill="#FFFFFF" d="M253.897,89.101l-10.604-3.11l-7.785-22.68l-5.42,18.896l-8.648-2.606l13.76-48.133l8.33,2.444
					c3.957,1.007,8.529,2.496,12.004,5.782c3.479,3.597,4.738,8.954,3.34,14.031c-1.528,5.438-5.566,9.358-10.797,10.495
					c-0.937,0.204-1.897,0.313-2.868,0.328L253.897,89.101z M245.806,83.358l2.934,0.858l-8.303-23.452l2.668,0.408
					c1.473,0.222,2.911,0.184,4.285-0.115c4.044-0.879,7.172-3.945,8.37-8.201c1.094-3.972,0.136-8.138-2.502-10.864
					c-2.876-2.719-6.79-3.995-10.584-4.963l-5.26-1.543l-11.983,41.936l2.453,0.741l5.459-19.03l4.618,1.356L245.806,83.358z
					 M246.413,59.479L246.413,59.479c-3.248,0.705-6.957-0.164-9.462-0.878l-3.399-1.025l5.593-19.509l3.025,0.955
					c9.109,2.752,12.848,7.337,11.09,13.623C252.154,56.439,249.853,58.732,246.413,59.479z M237.541,55.4l0.322,0.097
					c2.149,0.612,5.323,1.372,7.862,0.82l0,0c2.259-0.491,3.661-1.938,4.426-4.56c1.234-4.403-1.486-7.373-8.806-9.609L237.541,55.4
					z"/>
			</g>
			<g id="svg_13">
				<path fill="#FFFFFF" d="M287.414,74.016L287.414,74.016l-24.028,20.196l-4.664-3.786l38.673-31.441l-11.174,38.713
					l35.981-18.184l-23.892,43.78l-4.662-3.786l15.557-27.379l-0.04-0.184l-31.169,15.604L287.414,74.016z"/>
				<path fill="#FFFFFF" d="M298.803,125.772l-7.234-5.875l13.768-24.226l-29.88,14.959l8.988-32.001l-21.036,17.68l-7.247-5.885
					l44.223-35.953l-11.575,40.106l37.311-18.855L298.803,125.772z M295.735,119.113l2.092,1.699l20.472-37.514l-34.656,17.515
					l10.771-37.318l-33.122,26.929l2.08,1.688l27.021-22.711l-9.843,35.061l29.761-14.9l0.613,2.823L295.735,119.113z"/>
			</g>
			<g id="svg_14">
				<path fill="#FFFFFF" d="M317.866,135.233l-12.922-0.265l-2.597-5.771l53.778,0.985l-35.84,40.042l-2.597-5.771l8.675-9.563
					L317.866,135.233L317.866,135.233z M344.36,135.236l-20.759-0.097l6.58,15.273L344.36,135.236z"/>
				<path fill="#FFFFFF" d="M319.83,173.157l-4.051-9.006l8.684-9.576l-7.669-17.746l-12.908-0.266l-4.065-9.03l59.867,1.097
					L319.83,173.157z M319.598,164.757l1.141,2.537l31.828-35.556l-47.696-0.875l1.127,2.511l12.941,0.264l9.316,21.567
					L319.598,164.757z M329.681,153.321l-8.538-19.813l26.924,0.128L329.681,153.321z M326.069,136.768l4.619,10.732l9.959-10.664
					L326.069,136.768z"/>
			</g>
		</g>
		<g id="svg_15">
			<g id="svg_16">
				<path fill="#FFFFFF" d="M120.718,272.273l21.479,19.33l-4.013,4.52l-16.472-14.852l-10.046,11.201l15.987,14.383l-4.009,4.518
					l-15.99-14.381l-13.581,15.24l16.476,14.851l-4.013,4.519l-21.479-19.328L120.718,272.273L120.718,272.273z"/>
				<path fill="#FFFFFF" d="M106.61,332.937L83.736,312.35l36.908-41.402l22.873,20.583l-5.259,5.926l-16.475-14.855l-8.791,9.809
					l15.982,14.377l-5.255,5.924l-15.991-14.385l-12.335,13.84l16.474,14.848L106.61,332.937z M86.381,312.205l20.083,18.074
					l2.767-3.117l-16.476-14.854l14.829-16.639l15.988,14.383l2.765-3.117l-15.989-14.384l11.296-12.604l16.468,14.85l2.767-3.117
					l-20.086-18.076L86.381,312.205z"/>
			</g>
			<g id="svg_17">
				<path fill="#FFFFFF" d="M146.292,294.554l7.15,2.865l2.907,22.215l18.095-13.918l7.149,2.861l-23.914,18.059l4.689,32.195
					l-6.926-2.723l-3.544-25.147l-20.423,15.573l-6.927-2.717l26.203-19.9L146.292,294.554L146.292,294.554z"/>
				<path fill="#FFFFFF" d="M163.529,360.296l-8.937-3.512l-3.396-24.098l-19.569,14.922l-8.974-3.521l27.089-20.576l-4.623-30.436
					l9.183,3.676l2.767,21.146l17.228-13.25l9.189,3.678l-24.797,18.729L163.529,360.296z M156.297,355.441l4.912,1.934
					l-4.537-31.146l23.031-17.389l-5.11-2.049l-18.961,14.582l-3.048-23.283l-5.118-2.049l4.3,28.294l-25.316,19.228l4.88,1.912
					l21.278-16.226L156.297,355.441z"/>
			</g>
			<g id="svg_18">
				<path fill="#FFFFFF" d="M190.293,362.749l-6.592-0.296l2.938-53.623l7.771,0.421c16.5,0.831,21.275,6.899,20.922,16.769
					c-0.623,11.268-9.574,15.133-19.667,14.639l-3.865-0.12L190.293,362.749L190.293,362.749z M191.954,334.166l2.135,0.113
					c6.813,0.438,14.308-0.422,14.754-8.967c0.488-8.359-7.522-9.886-14.114-10.177l-1.77-0.192L191.954,334.166L191.954,334.166z"
					/>
				<path fill="#FFFFFF" d="M191.166,363.728l-8.455-0.381l3.041-55.508l8.709,0.475c15.492,0.779,22.219,6.245,21.808,17.734
					c-0.438,7.953-5.031,13.266-12.933,14.982c-2.343,0.51-4.939,0.699-7.717,0.561l-2.945-0.092L191.166,363.728z M184.689,361.56
					l4.73,0.213l1.505-22.205l4.77,0.148c2.629,0.127,5.06-0.049,7.242-0.523c4.952-1.076,10.961-4.246,11.458-13.23
					c0.374-10.467-5.43-15.044-20.033-15.779l-6.839-0.369L184.689,361.56z M201.655,334.844
					C201.655,334.844,201.657,334.843,201.655,334.844c-2.058,0.447-4.552,0.571-7.626,0.37l-3.061-0.16l1.104-21.154l2.758,0.305
					c3.969,0.174,9.682,0.811,12.783,4.247c1.601,1.772,2.328,4.101,2.165,6.917C209.509,330.541,206.776,333.732,201.655,334.844z
					 M192.938,333.279l1.199,0.061c2.909,0.189,5.235,0.078,7.121-0.332c4.308-0.936,6.419-3.396,6.648-7.742
					c0.136-2.332-0.416-4.15-1.685-5.555c-2.631-2.917-7.843-3.476-11.535-3.641l-0.845-0.092L192.938,333.279z"/>
			</g>
			<g id="svg_19">
				<path fill="#FFFFFF" d="M267.139,352.39l-7.802,2.076l-21.344-17.824l-2.709,0.781l5.921,21.942l-6.52,1.804l-14.144-51.839
					l7.805-2.077c4.542-1.18,9.632-2.475,14.294-1.377c5.1,1.387,8.887,5.559,10.143,10.467c2.002,7.435-1.146,15.03-8.571,17.99
					L267.139,352.39z M233.941,332.144l1.976-0.621c6.521-1.801,13.495-5.043,11.152-13.176c-2.16-8.165-10.2-7.189-16.538-5.432
					l-1.834,0.398L233.941,332.144L233.941,332.144z"/>
				<path fill="#FFFFFF" d="M234.023,362.321l-14.641-53.651l8.719-2.324c1.326-0.344,2.695-0.697,4.083-0.999
					c2.98-0.647,6.887-1.274,10.665-0.379c5.305,1.438,9.447,5.71,10.838,11.14c2.068,7.676-1.073,15.047-7.689,18.441
					l23.196,18.264l-10.089,2.688l-21.333-17.817l-1.345,0.384l5.922,21.958L234.023,362.321z M221.69,309.996l13.646,50.016
					l4.715-1.301l-5.917-21.936l4.074-1.172l21.354,17.832l5.521-1.473L242.35,334.06l1.511-0.604
					c6.676-2.657,9.969-9.6,8.012-16.875c-1.229-4.793-4.862-8.545-9.486-9.803c-3.382-0.798-7.016-0.207-9.805,0.4
					c-1.363,0.295-2.707,0.646-4.003,0.979L221.69,309.996z M233.301,333.333l-5.77-20.721l2.806-0.609
					c0.743-0.207,1.564-0.416,2.397-0.597c8.452-1.837,13.587,0.417,15.25,6.702c0.812,2.823,0.622,5.344-0.574,7.481
					c-2.219,3.958-7.474,5.795-11.235,6.834L233.301,333.333z M229.874,314.023l4.714,16.938l1.053-0.33
					c3.47-0.96,8.256-2.609,10.131-5.955c0.955-1.707,1.092-3.691,0.405-6.066c-1.401-5.302-5.547-7.002-13.042-5.373
					c-0.794,0.173-1.582,0.37-2.344,0.584L229.874,314.023L229.874,314.023z"/>
			</g>
			<g id="svg_20">
				<path fill="#FFFFFF" d="M253.164,299.558l24.47-15.49l3.255,5.24l-18.76,11.756l7.938,12.674l18.246-11.453l3.252,5.247
					l-18.249,11.45l10.844,17.229l18.758-11.754l3.249,5.24l-24.471,15.494L253.164,299.558L253.164,299.558z"/>
				<path fill="#FFFFFF" d="M281.407,346.488l-29.536-47.223l26.059-16.502l4.246,6.848l-18.754,11.748l6.943,11.085l18.252-11.45
					l4.24,6.84l-18.244,11.445l9.846,15.64l18.767-11.756l4.235,6.833L281.407,346.488z M254.453,299.851l27.545,44.045
					l22.887-14.494l-2.264-3.651l-18.753,11.751l-11.845-18.814l18.256-11.449l-2.266-3.656l-18.241,11.449l-8.936-14.264
					l18.763-11.756l-2.264-3.649L254.453,299.851z"/>
			</g>
			<g id="svg_21">
				<path fill="#FFFFFF" d="M304.403,269.416c-3.802-0.711-6.884,0.15-9.479,3.211c-2.744,3.283-3.685,8.669-0.138,11.737
					c3.285,2.745,7.527,1.056,10.809-0.62l3.609-1.935c7.22-3.876,14.19-5.39,21.019,0.423c7.313,6.278,7.856,16.724,1.579,24.038
					c-5.669,6.61-14.854,7.642-22.216,2.907l3.286-6.09c4.476,3.826,10.826,3.024,14.513-1.23c3.823-4.48,2.654-10.754-1.561-14.256
					c-4.479-3.823-9.229-1.834-13.723,0.488l-3.649,1.752c-6.055,3.045-12.17,4.947-18.031,0.078
					c-6.604-5.664-5.545-14.922-0.345-21.043c3.824-4.48,9.35-6.449,15.183-5.221L304.403,269.416z"/>
				<path fill="#FFFFFF" d="M322.958,312.655c-4.678,1.017-9.604,0.062-13.878-2.681l-0.729-0.468l4.246-7.876l0.883,0.754
					c2.226,1.898,5.112,2.637,7.924,2.025c2.046-0.444,3.865-1.535,5.271-3.16c1.548-1.809,2.263-4.01,2.058-6.343
					c-0.215-2.502-1.492-4.899-3.507-6.575c-2.057-1.752-4.271-2.291-6.979-1.702c-1.906,0.415-3.871,1.349-5.712,2.301
					l-3.674,1.762c-2.886,1.452-5.128,2.306-7.256,2.769c-4.481,0.973-8.334,0.053-11.783-2.817
					c-7.313-6.273-5.695-16.207-0.46-22.37c4.048-4.736,10.047-6.799,16.088-5.529l0.871,0.182l-1.136,7.593l-0.956-0.178
					c-3.679-0.685-6.302,0.198-8.592,2.894c-2.478,2.963-3.273,7.803-0.237,10.432c1.375,1.144,3.092,1.48,5.237,1.014
					c1.648-0.357,3.289-1.132,4.531-1.768l3.594-1.926c2.944-1.58,5.547-2.601,7.946-3.121c5.266-1.145,9.886,0.049,14.125,3.658
					c7.698,6.615,8.418,17.514,1.681,25.367C329.967,309.853,326.663,311.849,322.958,312.655z M310.834,308.847
					c3.674,2.124,7.801,2.828,11.727,1.976c3.302-0.718,6.25-2.503,8.53-5.158c6.041-7.042,5.409-16.804-1.476-22.72
					c-3.811-3.244-7.788-4.278-12.506-3.253c-2.226,0.483-4.666,1.449-7.456,2.942l-3.609,1.936
					c-1.362,0.699-3.144,1.533-5.009,1.938c-2.707,0.589-5.015,0.108-6.852-1.421c-3.964-3.429-3.098-9.333,0.019-13.062
					c2.53-2.986,5.542-4.164,9.411-3.688l0.584-3.922c-5.065-0.781-9.998,1.082-13.412,5.07c-4.646,5.469-6.138,14.241,0.245,19.717
					c3.003,2.5,6.241,3.27,10.176,2.416c1.967-0.428,4.073-1.237,6.826-2.619l3.665-1.756c1.933-0.998,4.033-1.996,6.15-2.456
					c3.283-0.714,6.094-0.024,8.582,2.104c2.388,1.98,3.915,4.844,4.17,7.85c0.243,2.807-0.648,5.547-2.506,7.725
					c-1.68,1.938-3.854,3.242-6.296,3.772c-3.019,0.655-6.106,0.026-8.626-1.729L310.834,308.847z"/>
			</g>
			<g id="svg_22">
				<path fill="#FFFFFF" d="M321.018,237.201c-3.928,0.471-6.44,2.168-8.104,5.983c-1.627,3.999-0.837,9.397,3.426,11.348
					c3.82,1.667,7.597-1.267,10.091-3.919l2.821-2.916c5.829-5.876,11.99-9.325,20.219-5.93c8.894,3.824,12.366,13.627,8.541,22.527
					c-3.437,8.039-12.065,11.641-20.456,9.242l1.393-6.83c5.338,2.487,11.294-0.154,13.6-5.452
					c2.303-5.297-0.478-11.03-5.775-13.337c-5.3-2.305-9.406,0.895-13.026,4.559l-2.862,2.732c-4.783,4.5-10.271,8.375-17.097,5.252
					c-8.04-3.436-9.668-12.68-6.478-20.098c2.445-5.522,7.104-8.836,12.908-9.521L321.018,237.201L321.018,237.201z"/>
				<path fill="#FFFFFF" d="M346.627,274.794c-3.012,0.654-6.242,0.533-9.334-0.352l-0.838-0.238l1.81-8.846l1.075,0.502
					c1.805,0.842,3.761,1.068,5.662,0.654c2.93-0.636,5.428-2.738,6.686-5.629c2.006-4.623-0.318-9.936-5.291-12.098
					c-1.603-0.697-3.139-0.875-4.688-0.539c-2.767,0.602-5.247,2.812-7.299,4.893l-2.882,2.752
					c-2.827,2.657-6.255,5.484-10.301,6.363c-2.603,0.566-5.236,0.253-7.836-0.939c-3.466-1.479-6.043-4.102-7.431-7.572
					c-1.661-4.161-1.485-9.168,0.482-13.744c2.533-5.713,7.44-9.357,13.657-10.088l0.926-0.107l1.039,8.211l-0.939,0.112
					c-3.657,0.438-5.855,1.994-7.358,5.429c-1.47,3.623-0.771,8.414,2.957,10.125c2.595,1.129,5.665-0.145,9.02-3.711l2.83-2.926
					c4.081-4.113,7.728-6.404,11.479-7.219c3.158-0.687,6.353-0.336,9.769,1.077c9.274,3.989,13.16,14.207,9.05,23.765
					C356.634,269.898,352.17,273.591,346.627,274.794z M338.65,272.857c2.539,0.598,5.142,0.636,7.582,0.105
					c4.943-1.074,8.922-4.369,10.914-9.035c3.691-8.584,0.229-17.732-8.051-21.299c-6.748-2.782-12.258-1.247-19.18,5.729
					l-2.812,2.908c-3.929,4.172-7.791,5.592-11.146,4.127c-4.766-2.186-5.731-8.104-3.919-12.56c1.63-3.734,4.159-5.745,7.931-6.427
					l-0.57-4.499c-5.186,0.888-9.088,3.976-11.237,8.838c-1.74,4.058-1.914,8.656-0.461,12.298c1.196,3.002,3.426,5.268,6.449,6.556
					c2.272,1.041,4.447,1.306,6.679,0.821c3.598-0.781,6.775-3.415,9.407-5.895l2.856-2.73c2.23-2.257,4.97-4.684,8.217-5.389
					c1.921-0.418,3.883-0.198,5.834,0.648c5.938,2.584,8.689,8.984,6.262,14.572c-1.493,3.439-4.489,5.947-8.007,6.712
					c-1.924,0.419-3.892,0.294-5.76-0.345L338.65,272.857z"/>
			</g>
		</g>
	</g>
</g>
</svg>
