<?xml version="1.0" encoding="utf-8"?>
<!-- Generator: Adobe Illustrator 17.1.0, SVG Export Plug-In . SVG Version: 6.00 Build 0)  -->
<!DOCTYPE svg PUBLIC "-//W3C//DTD SVG 1.1//EN" "http://www.w3.org/Graphics/SVG/1.1/DTD/svg11.dtd">
<svg version="1.1" id="Layer_1" xmlns="http://www.w3.org/2000/svg" xmlns:xlink="http://www.w3.org/1999/xlink" x="0px" y="0px"
	 viewBox="0 14 816.9 118" enable-background="new 0 14 816.9 118" xml:space="preserve">
<g>
	<path fill="#FFFFFF" d="M29.7,65.9c-2.1-3.6-4.9-5.4-9.2-5.4c-4.6,0-9.6,3.1-9.6,8.2c0,4.5,4.4,6.9,8,8.2l4.1,1.6
		c8.2,3.2,14.3,7.7,14.3,17.3c0,10.5-8.1,17.9-18.4,17.9c-9.3,0-16.6-6.9-17.8-16.1l7.3-1.5c-0.1,6.3,5,10.9,11.1,10.9
		s10.6-5.2,10.6-11.2c0-6.2-5-8.9-9.9-10.9l-4-1.7C9.6,80.4,3.7,76.7,3.7,68.7c0-9.3,8.2-14.9,17-14.9c6.4,0,11.7,3.1,14.8,8.7
		L29.7,65.9z"/>
	<path fill="#FFFFFF" d="M79.1,78.2V55h7.2v57.6h-7.2V84.9H51.7v27.6h-7.2V55h7.2v23.2H79.1z"/>
	<path fill="#FFFFFF" d="M104.9,98.1l-6.6,14.4h-7.7l27.5-60l27.5,60h-7.7l-6.6-14.4H104.9z M118.1,68.3l-10.2,23.3h20.5L118.1,68.3
		z"/>
	<path fill="#FFFFFF" d="M160.2,96.2l16.3-42.5l16.3,42.5L208.9,55h7.8l-23.9,59.9l-16.3-42.2l-16.3,42.2L136.3,55h7.8L160.2,96.2z"
		/>
	<path fill="#FFFFFF" d="M221.7,98.1l-6.6,14.4h-7.7l27.5-60l27.5,60h-7.7l-6.6-14.4H221.7z M234.9,68.3l-10.2,23.3h20.5L234.9,68.3
		z"/>
	<path fill="#FFFFFF" d="M303,112.6h-8.7l-17-24.4h-3v24.4h-7.2V55h8.7c5.1,0,10.6,0.1,15.2,2.7c4.8,2.8,7.6,8.2,7.6,13.7
		c0,8.2-5.5,15.1-13.8,16.1L303,112.6z M274.4,82.2h2.3c7.3,0,15.3-1.4,15.3-10.5c0-9-8.6-10.3-15.7-10.3h-1.9V82.2z"/>
	<path fill="#FFFFFF" d="M318.5,74.5h-0.2l-6.7,38h-7.4l11.8-60l19.8,45.4l19.8-45.4l11.8,60h-7.4l-6.7-38H353l-17.3,39.2
		L318.5,74.5z"/>
	<path fill="#FFFFFF" d="M381.9,98.1l-6.6,14.4h-7.7l27.5-60l27.5,60h-7.7l-6.6-14.4H381.9z M395.1,68.3l-10.2,23.3h20.5L395.1,68.3
		z"/>
</g>
<path fill="#2C9560" d="M485.1,114.7c0.3,0.9,0.6,1.8,1.1,3.2c-1.4-0.6-2.4-0.9-3.4-1.5c-0.9-0.5-1.8-1.1-2.5-1.9
	c-3.8-3.6-7.8-3.3-12.3-1.2c-4.2,2-8.6,3.6-12.9,5.3c-0.1-0.2-0.3-0.4-0.4-0.6c1.1-1.1,2.1-2.3,3.4-3.2c1.6-1.1,3.4-2,5.1-3
	c2.4-1.4,4.4-3.3,5.4-6.1c0.5-1.5,0.1-2.7-0.8-3.7c-1-1.1-2.3-1.7-3.8-1.2c-2.5,0.8-5,1.8-7.6,2.3c-3.9,0.8-8,1.2-12.2,1.7
	c0-1.3,0-2.1,0-3.1c5-1,9.9-2.5,14.1-5.7c-0.1-0.2-0.1-0.4-0.2-0.7c-1.7,0.5-3.5,0.8-5,1.7c-3.6,2-7.3,2.8-11.4,1.9
	c-0.8-0.2-1.5-0.6-2.2-0.9c0.5-0.6,0.9-1.4,1.6-1.8c4.3-2.5,8.6-4.8,12.9-7.2c0.4-0.2,1-0.4,1.3-0.7c0.3-0.6,0.4-1.3,0.6-1.9
	c-0.5-0.1-1.1-0.4-1.6-0.3c-1.4,0.4-2.6,1-4,1.4c-2.6,0.7-3.7,0.1-4.6-2.7c3.6-2,7.2-4,10.9-6.1c2.5-1.4,3.1-3.2,2.1-5.8
	c-2.2,0.2-4.4,0.5-6.8,0.7c0.8-2,2.2-3.1,3.9-4.1c3.5-2.1,6.9-4.3,10.3-6.4c0.5-0.3,0.8-0.8,1.3-1.2c-0.1-0.1-0.2-0.3-0.2-0.4
	c-0.7,0.2-1.3,0.4-2,0.5c-0.4,0.1-0.8,0.1-1.2,0.1c0-0.4-0.1-1.1,0.1-1.3c1.5-1.5,3.1-2.9,4.7-4.3c-1.4-1.1-0.5-2.1,0.7-3
	c1.1-0.8,2.3-1.6,3.4-2.6c1.7-1.6,3.4-3.3,5.3-5.2c1.1,0.8,2.6,1.6,3.7,2.8c2.3,2.7,5.3,4.1,8.6,5.2c2,0.6,4,1.3,5.8,2.4
	c1.5,0.9,2.6,2.3,4.2,3.9c-1.8,0.5-3,0.8-4.6,1.2c2.8,1.1,5.2,1.9,6.8,4.5c-3.5-0.2-6.5-2.8-10-1.8c-0.1,0.3-0.2,0.6-0.3,0.9
	c6.5,4.1,13.1,8.2,19.6,12.3c-0.1,0.3-0.2,0.6-0.3,0.9c-2.9-0.3-5.8-0.7-8.6-1c-0.7-0.1-1.4,0.2-2.1,0.3c0,0.3,0,0.5,0,0.8
	c2.6,0.8,5.2,1.5,7.9,2.3c1.2,0.3,2.4,0.6,3.6,1c0.4,0.1,0.8,0.6,1.2,0.9c-0.4,0.3-0.8,0.7-1.2,0.8c-2.7,0.4-5.4,0.6-8.1,1
	c-0.7,0.1-1.4,0.2-2.2,0.5c3.2,0.3,6.3,1.1,8.8,3.1c2.4,1.9,5.3,3.4,6.9,6.4c-2.8,1-5.2,0.9-7.5-0.1c-2-0.8-3.7-0.3-5.5,1.2
	c6,2.2,11.8,4.4,15.5,10.1c-2.4,1.1-4.5,0.6-6.7-0.1c-3.9-1.3-7.8-2.7-11.7-3.7c-3.1-0.8-6.4-1.1-9.6-1.7c-2.1-0.4-3.9,0.9-3.9,3.3
	c0,4.4,1.8,8.1,5.3,10.9c1.6,1.3,3.1,2.6,4.8,4.1c-2.1,0.9-3.8,0.4-5.4-0.3c-2.5-1-5-2.1-7.6-3.1
	C485.3,114.4,485.2,114.5,485.1,114.7z M457.2,84.1c-0.1,0.2-0.2,0.5-0.2,0.7c0.7,0.6,1.4,1.8,2,1.7c2-0.3,4-1.1,5.9-1.8
	c0.3-0.1,0.5-0.8,0.5-1.2c0-0.3-0.7-0.7-1-0.6C461.9,83.2,459.6,83.6,457.2,84.1z M502.5,93.6c1.5,0.1,2.5-0.6,2.6-1.7
	c0.1-1.3-1.4-2.6-3.4-2.7c-1.2,0-2.5,0-2.8,1.5C498.7,91.9,500.8,93.5,502.5,93.6z M495.8,91c0,0,0-0.1,0-0.1c0.2,0,0.5,0.1,0.7,0
	c0.7-0.4,1.4-0.9,2.1-1.4c-0.6-0.6-1.2-1.8-1.8-1.8c-1.8,0-3.6,0.4-5.3,0.8c-0.3,0.1-0.7,0.7-0.6,1c0,0.3,0.5,0.7,0.9,0.8
	C493.2,90.6,494.5,90.8,495.8,91z M466.9,73.3c-1.3-1.1-1.9-2.1-2.7-2.3c-1.6-0.3-4.1,1-3.7,1.7c0.5,1.1,1.5,2.9,2.2,2.8
	C464,75.6,465.2,74.4,466.9,73.3z M470.5,93.5c0-1.8-1.2-3.3-2.9-3.8c-0.5-0.1-1.1,0-1.5,0.3c-0.2,0.2-0.3,1-0.1,1.3
	c0.7,1.3,1.4,2.6,2.2,3.8c0.2,0.4,0.9,0.8,1.2,0.7c0.4-0.2,0.7-0.7,0.9-1.2C470.5,94.3,470.5,93.8,470.5,93.5z M474.8,63.6
	c-0.8-0.3-1.7-0.9-2-0.7c-1.4,1-2.7,2.3-3.9,3.5c-0.2,0.2-0.3,1.2-0.1,1.3c0.4,0.2,1.1,0.4,1.5,0.2c1.3-0.8,2.5-1.7,3.7-2.7
	C474.2,64.9,474.3,64.5,474.8,63.6z M490.5,73.1c0.4-0.3,1.4-0.7,1.6-1.3c0.4-1-1.3-2.6-2.6-2.4c-1.1,0.2-2.8,1-2.8,1.6
	C486.7,73,488.6,72.6,490.5,73.1z M482.7,82c-0.2-1.8-0.4-3.3-2-3.2c-0.7,0-1.7,1.1-2.1,1.9c-0.4,0.9,1.7,2.6,3,2.4
	C482.1,82.9,482.5,82.2,482.7,82z M479.2,95.1c0.3-0.4,1.1-0.9,1.3-1.7c0.3-1-1.8-2.8-2.9-2.5c-0.5,0.1-1.1,1.1-1.1,1.7
	C476.5,94,477.2,94.9,479.2,95.1z M477.1,71.2c1.1-0.3,2.2-0.5,3.1-1c0.4-0.2,0.6-1,0.9-1.6c-0.5-0.2-1.1-0.7-1.5-0.7
	c-1,0.2-2,0.6-2.9,1.1c-0.5,0.2-0.7,0.9-1,1.3C476.1,70.6,476.6,70.9,477.1,71.2z M468.7,68.7c-1,1-1.7,1.6-2.4,2.3
	c0.7,0.6,1.2,1.5,2,1.8c0.9,0.3,2.6-1.3,2.4-2.3C470.4,69.9,469.6,69.5,468.7,68.7z M479,60.8c-2,0.1-4.2,1.4-3.9,2.3
	c0.1,0.4,1,0.8,1.5,0.8c1.5,0.1,3.4-1.2,3.2-2.1C479.8,61.3,479.2,61,479,60.8z M498.6,76.6c0.1,0.1,0.3,0.2,0.4,0.3
	c0.3-0.5,0.7-0.9,1-1.4c-1.1-0.5-2.2-1-3.4-1.3c-0.2-0.1-0.6,0.7-0.9,1c0.9,0.5,1.8,0.9,2.7,1.4C498.4,76.6,498.5,76.6,498.6,76.6z
	 M482,71.1c1.6-0.2,3.2,0,3.7-1.8c0.1-0.3-0.8-1.1-1.3-1.2C483.3,67.7,482.2,69.1,482,71.1z M475.4,94c-0.8-1-1.4-1.8-2-2.6
	c-0.3,0.5-0.9,1-1,1.6c-0.1,1.1,0.1,2.2,1.4,2.4C474.2,95.3,474.7,94.6,475.4,94z M476.7,76.5c-0.8,0.9-1.7,1.7-1.6,1.9
	c0.4,0.7,1.2,1.2,1.8,1.7c0.4-0.6,1.2-1.1,1.2-1.7C478.1,78,477.4,77.4,476.7,76.5z M483,63.4c0.8-0.7,1.4-1.2,1.9-1.7
	c-0.5-0.4-1.1-1.1-1.5-1.1c-0.6,0-1.2,0.7-1.8,1.1C482,62.1,482.4,62.6,483,63.4z M473.5,80.9c0.2-0.3,0.4-0.7,0.7-1
	c-0.6-0.4-1.2-0.9-1.9-1c-0.6-0.2-1.4,0.1-2.1,0.1c0.4,0.5,0.7,1.3,1.2,1.6C471.9,80.9,472.8,80.8,473.5,80.9z M485.5,62.1
	c0,0.2,0,0.5,0,0.7c1.1,0.1,2.1,0.2,3.2,0.2c0-0.4,0.1-1-0.2-1.2C487.4,60.9,486.4,61.4,485.5,62.1z M471.3,59.4
	c-0.2-0.1-0.4-0.3-0.6-0.4c-0.9,0.7-1.8,1.3-2.7,2c0.1,0.2,0.2,0.5,0.3,0.7c0.7-0.2,1.5-0.3,2.1-0.7C470.9,60.6,471,59.9,471.3,59.4
	z"/>
<g>
	<path fill="#FFFFFF" d="M538,55H569v6.6h-23.7v16.1h23.1v6.6h-23.1V106H569v6.6H538V55z"/>
	<path fill="#FFFFFF" d="M574.5,55h8.2l11.8,21L607,55h8.2l-16.6,27.4l17.5,30.2h-8L594.5,89l-14.1,23.6h-8l18.1-30.2L574.5,55z"/>
	<path fill="#FFFFFF" d="M628.8,112.6h-7.2V55h8.2c17.7,0,23.2,6.1,23.2,16.6c0,12.1-9.2,16.8-20.2,16.8h-4.1V112.6z M628.8,82h2.3
		c7.3,0,15.3-1.4,15.3-10.5c0-9-8.6-10.1-15.7-10.1h-1.9V82z"/>
	<path fill="#FFFFFF" d="M695.3,112.6h-8.7l-17-24.4h-3v24.4h-7.2V55h8.7c5.1,0,10.6,0.1,15.2,2.7c4.8,2.8,7.6,8.2,7.6,13.7
		c0,8.2-5.5,15.1-13.8,16.1L695.3,112.6z M666.6,82.3h2.3c7.3,0,15.3-1.4,15.3-10.5c0-9-8.6-10.3-15.7-10.3h-1.9V82.3z"/>
	<path fill="#FFFFFF" d="M700.9,55h30.9v6.6h-23.7v16.1h23.1v6.6h-23.1V106h23.7v6.6h-30.9V55z"/>
	<path fill="#FFFFFF" d="M766.3,65.9c-2.1-3.6-4.9-5.4-9.2-5.4c-4.6,0-9.6,3.1-9.6,8.2c0,4.5,4.4,6.9,8,8.2l4.1,1.6
		c8.2,3.2,14.3,7.7,14.3,17.3c0,10.5-8.1,17.9-18.4,17.9c-9.3,0-16.6-6.9-17.8-16.1l7.3-1.5c-0.1,6.3,5,10.9,11.1,10.9
		c6.2,0,10.6-5.2,10.6-11.2c0-6.2-5-8.9-9.9-10.9l-4-1.7c-6.6-2.8-12.5-6.6-12.5-14.6c0-9.3,8.2-14.9,17-14.9
		c6.4,0,11.7,3.1,14.8,8.7L766.3,65.9z"/>
	<path fill="#FFFFFF" d="M807.3,65.9c-2.1-3.6-4.9-5.4-9.2-5.4c-4.6,0-9.6,3.1-9.6,8.2c0,4.5,4.4,6.9,8,8.2l4.1,1.6
		c8.2,3.2,14.3,7.7,14.3,17.3c0,10.5-8.1,17.9-18.4,17.9c-9.3,0-16.6-6.9-17.8-16.1l7.3-1.5c-0.1,6.3,5,10.9,11.1,10.9
		c6.2,0,10.6-5.2,10.6-11.2c0-6.2-5-8.9-9.9-10.9l-4-1.7c-6.6-2.8-12.5-6.6-12.5-14.6c0-9.3,8.2-14.9,16.9-14.9
		c6.4,0,11.7,3.1,14.8,8.7L807.3,65.9z"/>
</g>
</svg>
