<?xml version="1.0" encoding="utf-8"?>
<!-- Generator: Adobe Illustrator 19.2.1, SVG Export Plug-In . SVG Version: 6.00 Build 0)  -->
<svg version="1.1" id="Layer_1" xmlns="http://www.w3.org/2000/svg" xmlns:xlink="http://www.w3.org/1999/xlink" x="0px" y="0px"
	 viewBox="0 0 500 500" style="enable-background:new 0 0 500 500;" xml:space="preserve">
<style type="text/css">
	.st0{fill:#FFFFFF;}
	.st1{fill:#2C9661;}
</style>
<g>
	<title>Layer 1</title>
	<g id="svg_23">
		<g id="svg_1">
			<path class="st0" d="M256,345.1c-56.3,0-102.1-45.8-102.1-102.1S199.7,140.9,256,140.9c56.3,0,102.1,45.8,102.1,102.1
				S312.3,345.1,256,345.1z M256,147.4c-52.7,0-95.6,42.9-95.6,95.6c0,52.7,42.9,95.6,95.6,95.6s95.6-42.9,95.6-95.6
				S308.8,147.4,256,147.4z"/>
		</g>
		<g id="svg_2">
			<path class="st1" d="M264.5,298.2c0.6,1.9,1.3,3.6,2.3,6.4c-2.6-1.1-4.9-1.9-6.8-3c-1.9-0.9-3.6-2.2-5.1-3.8
				c-7.5-7.1-15.8-6.6-24.6-2.4c-8.4,3.9-17.3,7.1-25.9,10.7c-0.4-0.4-0.6-0.8-0.9-1.1c2.3-2.1,4.3-4.7,6.8-6.4
				c3.2-2.2,6.8-3.9,10.3-6c4.9-2.8,8.8-6.8,10.7-12.2c1.1-3,0.2-5.4-1.7-7.5c-2.1-2.3-4.5-3.4-7.7-2.4c-5.1,1.5-9.9,3.6-15.2,4.7
				c-7.9,1.5-15.9,2.3-24.4,3.4c0-2.6,0-4.1,0-6.2c9.9-1.9,19.9-4.9,28.1-11.4c-0.2-0.4-0.2-0.9-0.4-1.3c-3.4,1.1-6.9,1.7-9.9,3.4
				c-7.3,3.9-14.6,5.6-22.7,3.8c-1.5-0.4-3-1.1-4.5-1.9c1.1-1.3,1.9-2.8,3.2-3.6c8.6-4.9,17.3-9.6,25.9-14.4
				c0.9-0.6,2.1-0.8,2.6-1.5c0.8-1.1,0.8-2.6,1.1-3.8c-1.1-0.2-2.3-0.8-3.2-0.6c-2.6,0.8-5.3,2.1-8.1,2.8c-5.1,1.5-7.3,0.2-9.4-5.4
				c7.1-3.9,14.4-8.1,21.8-12.2c4.9-2.8,6.4-6.6,4.3-11.6c-4.3,0.4-8.8,0.9-13.7,1.5c1.5-4.1,4.5-6.2,7.9-8.3
				c6.9-4.1,13.9-8.6,20.6-12.9c0.9-0.6,1.7-1.5,2.6-2.2c-0.2-0.4-0.4-0.6-0.4-0.9c-1.3,0.4-2.6,0.8-3.9,0.9
				c-0.7,0.2-1.5,0.2-2.2,0.2c0-0.9-0.2-2.1,0.2-2.6c3-3,6.2-5.8,9.6-8.6c-2.8-2.1-1.1-4.1,1.5-6c2.2-1.7,4.7-3.2,6.8-5.1
				c3.6-3.2,6.8-6.6,10.7-10.5c2.1,1.5,5.3,3.2,7.5,5.6c4.7,5.3,10.5,8.3,17.1,10.3c3.9,1.3,8.1,2.6,11.6,4.9c3,1.7,5.1,4.7,8.4,7.7
				c-3.6,0.9-6,1.5-9.2,2.4c5.6,2.1,10.5,3.9,13.5,9c-7.1-0.4-13.1-5.6-20.1-3.6c-0.2,0.6-0.4,1.1-0.7,1.7
				c13.1,8.3,26.3,16.3,39.2,24.6c-0.2,0.6-0.4,1.1-0.6,1.7c-5.8-0.8-11.6-1.5-17.3-2.1c-1.3-0.2-2.8,0.4-4.1,0.6c0,0.6,0,0.9,0,1.5
				c5.3,1.5,10.5,3.2,15.8,4.7c2.4,0.8,4.9,1.1,7.1,1.9c0.9,0.4,1.5,1.1,2.3,1.9c-0.8,0.6-1.5,1.5-2.4,1.5
				c-5.4,0.8-10.7,1.3-16.1,1.9c-1.5,0.2-2.8,0.4-4.3,1.1c6.4,0.6,12.6,2.1,17.6,6.2c4.9,3.8,10.5,6.8,13.9,12.8
				c-5.6,2.1-10.3,1.7-15-0.2c-3.9-1.7-7.3-0.6-10.9,2.2c12,4.3,23.6,9,31.1,20.3c-4.9,2.2-9,1.1-13.5-0.2
				c-7.9-2.6-15.6-5.4-23.5-7.5c-6.2-1.7-12.8-2.3-19.1-3.4c-4.1-0.8-7.9,1.9-7.9,6.6c0,8.8,3.6,16.1,10.7,21.8
				c3.2,2.4,6.2,5.3,9.6,8.3c-4.3,1.9-7.5,0.8-10.9-0.6c-5.1-2.1-10.1-4.1-15.2-6.2C264.9,297.6,264.7,298,264.5,298.2L264.5,298.2z
				 M208.4,236.8c-0.2,0.6-0.4,0.9-0.4,1.5c1.3,1.1,2.8,3.6,3.9,3.4c3.9-0.8,7.9-2.3,11.8-3.6c0.6-0.2,1.1-1.7,0.9-2.4
				c0-0.6-1.3-1.3-2.1-1.3C218,235.1,213.3,236.1,208.4,236.8z M299.4,256c3,0.2,5.1-1.1,5.3-3.4c0.2-2.6-2.8-5.3-6.8-5.3
				c-2.4,0-4.9,0-5.6,3C291.7,252.6,295.8,255.8,299.4,256z M285.9,250.9v-0.2c0.6,0,1.1,0.2,1.5,0c1.5-0.9,2.8-1.9,4.3-2.8
				c-1.1-1.3-2.4-3.6-3.6-3.6c-3.6,0-7.1,0.9-10.7,1.5c-0.6,0.2-1.3,1.3-1.1,1.9c0,0.6,1.1,1.3,1.7,1.5
				C280.6,250,283.2,250.3,285.9,250.9z M227.9,215.2c-2.6-2.2-3.8-4.1-5.4-4.5c-3.4-0.8-8.3,2.1-7.5,3.6c0.9,2.3,3,5.8,4.5,5.6
				C222.1,219.7,224.5,217.5,227.9,215.2z M235.2,256c0-3.6-2.4-6.8-5.8-7.5c-0.9-0.2-2.3,0-3,0.6c-0.6,0.4-0.6,1.9-0.2,2.6
				c1.3,2.6,2.8,5.1,4.5,7.7c0.6,0.8,1.9,1.7,2.3,1.3c0.7-0.4,1.5-1.5,1.9-2.4C235.2,257.3,235,256.3,235.2,256L235.2,256z
				 M243.7,195.9c-1.7-0.6-3.6-1.9-4.1-1.5c-2.8,2.1-5.4,4.5-7.9,7.1c-0.6,0.6-0.6,2.3-0.2,2.6c0.8,0.6,2.2,0.8,3,0.4
				c2.6-1.7,5.1-3.6,7.5-5.4C242.5,198.5,242.7,197.6,243.7,195.9z M275.2,214.9c0.7-0.6,2.8-1.3,3.2-2.6c0.8-2.1-2.6-5.3-5.3-4.7
				c-2.1,0.4-5.6,2.1-5.6,3.2C267.5,214.7,271.4,213.9,275.2,214.9z M259.6,232.7c-0.4-3.6-0.8-6.8-4.1-6.4c-1.5,0-3.6,2.1-4.1,3.8
				c-0.8,1.9,3.4,5.3,6,4.9C258.5,234.6,259.2,233.3,259.6,232.7z M252.7,259c0.7-0.8,2.2-1.9,2.6-3.4c0.6-2.1-3.6-5.6-5.8-4.9
				c-0.9,0.4-2.1,2.1-2.2,3.4C247,256.9,248.5,258.8,252.7,259L252.7,259z M248.4,211.1c2.2-0.8,4.3-0.9,6.2-2.1
				c0.9-0.6,1.1-2.1,1.7-3.2c-0.9-0.6-2.1-1.5-3-1.3c-2.1,0.4-3.9,1.1-5.8,2.1c-0.9,0.6-1.3,1.7-2.1,2.6
				C246.3,210,247.4,210.6,248.4,211.1L248.4,211.1z M231.5,206.1c-2.1,1.9-3.4,3.2-4.9,4.7c1.3,1.3,2.4,3,3.9,3.6
				c1.9,0.6,5.3-2.6,4.7-4.5C235,208.5,233.3,207.7,231.5,206.1z M252.3,190.3c-3.9,0.2-8.3,2.8-7.7,4.5c0.2,0.8,1.9,1.7,3,1.7
				c3,0.2,6.8-2.4,6.4-4.3C253.8,191.2,252.5,190.5,252.3,190.3z M291.3,221.8c0.2,0.2,0.6,0.4,0.8,0.6c0.7-0.9,1.3-1.9,2.1-2.8
				c-2.3-0.9-4.5-1.9-6.8-2.6c-0.4-0.2-1.3,1.3-1.9,2.1c1.9,0.9,3.6,1.9,5.4,2.8C291.1,221.8,291.3,221.8,291.3,221.8L291.3,221.8z
				 M258.3,210.9c3.2-0.4,6.6,0,7.5-3.8c0.2-0.6-1.5-2.3-2.6-2.4C260.9,204.2,258.7,207,258.3,210.9z M245,256.7
				c-1.5-2.1-2.8-3.6-3.9-5.3c-0.8,1.1-1.9,2.1-1.9,3.2c-0.4,2.1,0.2,4.5,2.8,4.7C242.7,259.3,243.5,258,245,256.7z M247.6,221.8
				c-1.5,1.9-3.4,3.4-3.2,3.9c0.8,1.3,2.2,2.4,3.6,3.6c0.9-1.1,2.4-2.3,2.4-3.4C250.4,224.6,248.9,223.5,247.6,221.8z M260.4,195.4
				c1.7-1.5,2.8-2.4,3.8-3.4c-1.1-0.8-2.1-2.2-3.2-2.2c-1.3,0-2.4,1.5-3.6,2.2C258.3,192.9,259,193.9,260.4,195.4L260.4,195.4z
				 M241,230.6c0.4-0.8,0.9-1.3,1.3-2.1c-1.3-0.8-2.4-1.7-3.8-2.1c-1.3-0.4-2.8,0.2-4.1,0.2c0.8,1.1,1.3,2.6,2.4,3.2
				C238,230.6,239.7,230.4,241,230.6z M265.2,192.9c0,0.6,0,0.9,0,1.5c2.1,0.2,4.3,0.4,6.4,0.6c0-0.9,0.2-2.1-0.4-2.4
				C269.2,190.5,267.1,191.4,265.2,192.9z M236.7,187.3c-0.4-0.2-0.8-0.6-1.1-0.8c-1.7,1.3-3.6,2.6-5.3,3.9c0.2,0.6,0.4,0.9,0.8,1.5
				c1.3-0.4,3-0.6,4.1-1.5C236,189.9,236.2,188.4,236.7,187.3L236.7,187.3z"/>
		</g>
		<g id="svg_3">
			<path class="st0" d="M249.9,447.6c-109.8,0-199.1-89.3-199.1-199.1S140,49.3,249.9,49.3c109.8,0,199.1,89.3,199.1,199.1
				S359.7,447.6,249.9,447.6z M249.9,62.2c-102.7,0-186.2,83.5-186.2,186.2c0,102.7,83.5,186.2,186.2,186.2
				c102.7,0,186.2-83.5,186.2-186.2C436.1,145.8,352.5,62.2,249.9,62.2z"/>
		</g>
		<g id="svg_4">
			<path class="st0" d="M110.1,261c-11.8-1.9-14.8,16.5-2.8,18.4C119.3,281.3,121.9,262.9,110.1,261z"/>
		</g>
		<g id="svg_5">
			<path class="st0" d="M397.9,261c-11.8-1.9-14.8,16.5-2.8,18.4C406.9,281.3,409.9,262.9,397.9,261z"/>
		</g>
		<g id="svg_6">
			<g id="svg_7">
				<path class="st0" d="M106.8,203.6c-3.2,0.9-5.3,2.8-6,6.4c-0.9,3.6,0.8,8.3,4.7,9.2c3.6,0.9,6.2-2.2,8.1-4.9l2.1-3
					c4.1-5.8,8.8-9.9,16.3-8.1c8.3,1.9,12.8,9.8,10.7,18c-1.7,7.3-8.6,11.8-16.1,11.1l0.2-6c5.1,1.3,9.6-1.9,10.7-6.8
					c1.1-4.9-2.1-9.4-6.9-10.5c-4.9-1.1-7.9,2.3-10.5,5.8l-2.1,2.8c-3.4,4.7-7.5,8.6-13.9,7.1c-7.3-1.7-10.3-9.4-8.6-16.1
					c1.1-5.1,4.7-8.6,9.8-10.1L106.8,203.6z"/>
				<path class="st0" d="M128.1,234c-0.6,0-1.2,0-1.8-0.1l-1.5-0.1l0.3-9.5l2,0.5c4,1,7.8-1.4,8.7-5.6c0.9-3.9-1.6-7.6-5.7-8.6
					c-3.6-0.8-6,1.3-8.8,5.2l-2.1,2.8c-2.7,3.8-6.6,8.1-12.5,8.1c-1,0-2-0.1-3-0.4c-3.5-0.8-6.3-2.8-8.1-5.9
					c-2.1-3.5-2.8-8-1.7-12.2c1.2-5.5,5.2-9.6,10.9-11.3l1.5-0.4l2.7,8.1l-1.6,0.5c-2.8,0.8-4.3,2.4-4.9,5.2
					c-0.5,1.7-0.2,3.7,0.7,5.2c0.5,0.8,1.3,1.8,2.8,2.1c0.3,0.1,0.6,0.1,0.9,0.1c2.1,0,3.9-2.2,5.5-4.4l2.1-3
					c3.1-4.3,7.4-9.2,14.1-9.2c1.3,0,2.6,0.2,3.9,0.5c4.3,1,7.8,3.5,10.1,7.1c2.3,3.8,3,8.3,1.8,12.9
					C142.5,228.9,135.9,234,128.1,234z M128.2,228.2l-0.1,2.6c6.3,0,11.6-4.1,12.9-9.9c0.9-3.7,0.4-7.4-1.4-10.4
					c-1.8-2.9-4.6-4.9-8.1-5.6c-1.1-0.3-2.2-0.4-3.2-0.4c-4.1,0-7.6,2.3-11.5,7.8l-2.1,3c-1.3,1.9-4.1,5.7-8.1,5.7h0
					c-0.6,0-1.1-0.1-1.7-0.2c-2-0.5-3.6-1.7-4.8-3.6c-1.3-2.2-1.7-5.1-1.1-7.6c0.7-3.3,2.5-5.6,5.5-6.9l-0.7-2
					c-3.8,1.6-6.3,4.5-7.2,8.4c-0.9,3.4-0.4,7.1,1.3,9.8c1.4,2.3,3.5,3.8,6.1,4.4c4.6,1.1,8.1-0.7,12.2-6.5l2.1-2.8
					c2.4-3.2,5.3-6.7,10-6.7c0.7,0,1.5,0.1,2.2,0.3c5.9,1.4,9.5,6.8,8.2,12.4C137.7,225.1,133.2,228.5,128.2,228.2z"/>
			</g>
			<g id="svg_8">
				<path class="st0" d="M137,163l-16.1-9.8l3-5.1l40.1,24.4l-3,5.1L141.7,166L130,185.2l19.3,11.6l-3,5.1l-40.1-24.4l3-5.1
					l16.1,9.8L137,163L137,163z"/>
				<path class="st0" d="M146.9,204.1L104,178l4.6-7.8l16.1,9.8l10-16.4l-16.1-9.7l4.7-7.9l42.9,26.1l-4.6,7.8l-19.3-11.6l-10,16.4
					l19.3,11.6L146.9,204.1z M108.4,176.9l37.4,22.7l1.4-2.3l-19.3-11.6l13.3-21.9l19.3,11.6l1.4-2.3l-37.4-22.7l-1.3,2.3l16.1,9.8
					l-13.3,21.9l-16.1-9.7L108.4,176.9z"/>
			</g>
			<g id="svg_9">
				<path class="st0" d="M170.7,150l2.8,12.6l-5.1,3.8L157,113.7l47.3,25.5l-5.1,3.8l-11.3-6.2L170.7,150z M164.7,124.1l4.7,20.1
					l13.3-9.9L164.7,124.1z"/>
				<path class="st0" d="M167.4,169.1l-12.7-58.4l52.6,28.4l-7.9,5.9l-11.2-6.2l-15.6,11.9l2.8,12.6L167.4,169.1z M159.3,116.8
					l10.2,46.6l2.2-1.6l-2.8-12.6l18.9-14.4l11.3,6.2l2.2-1.6L159.3,116.8z M168.4,146.9l-6.1-26.1l23.4,13.2L168.4,146.9z
					 M167.1,127.3l3.3,14.1l9.3-7L167.1,127.3z"/>
			</g>
			<g id="svg_10">
				<path class="st0" d="M210.1,124.1l4.1-36.8l21.6,30l4.3-35.8l6.2-1.7l-6.6,52l-21.4-29.8l-4.1,36.6l-31.5-42l6.2-1.7
					L210.1,124.1L210.1,124.1z"/>
				<path class="st0" d="M214.4,138.7L180,95.6l9.6-2.6l19.4,26.8l4.1-36.8l21.6,30.1l3.9-32.8l9.6-2.6l-8.4,53.5l-20.3-24.8
					L214.4,138.7z M185.4,97.4l27.6,36.9l4.1-36.7l21.4,29.9l5.7-45.5l-2.8,0.8l-4.7,38.9l-21.5-30l-4.1,36.7l-23-31.7L185.4,97.4z"
					/>
			</g>
			<g id="svg_11">
				<path class="st0" d="M261.3,117.9l-6.9,10.9l-6.2-0.8l28.7-45.4l15.8,51.4l-6.2-0.8l-3.8-12.4L261.3,117.9z M275.2,95.4
					L264.5,113l16.5,2.3L275.2,95.4z"/>
				<path class="st0" d="M294.9,135.9l-9.7-1.2l-3.8-12.4l-19.3-2.7l-6.9,10.9l-9.7-1.2l32-50.5L294.9,135.9z M287.7,131.8l2.7,0.3
					l-14-45.7l-25.5,40.3l2.6,0.3l7-10.9l23.4,3.3L287.7,131.8z M283.2,117.2l-21.4-2.9l13.9-22.9L283.2,117.2z M267.1,111.7
					l11.6,1.6l-4.1-14L267.1,111.7z"/>
			</g>
			<g id="svg_12">
				<path class="st0" d="M325,151.5l-6.2-3.4l-2.8-24l-2.1-1.1l-9.4,17.4l-5.1-2.8l22.1-41.3l6.2,3.4c3.8,1.9,7.5,4.1,9.9,7.7
					c2.4,3.9,2.3,8.8,0.2,12.8c-3.2,6-9.8,8.6-16.1,6.2L325,151.5z M316,118.6l1.7,0.9c5.2,2.8,11.4,4.9,15-1.7
					c3.4-6.4-2.3-10.7-7.3-13.5l-1.3-0.8L316,118.6z"/>
				<path class="st0" d="M327,154.4l-9.7-5.3l-2.8-23.8l-9.3,17.3l-7.9-4.4l23.7-44.1l7.6,4.2c3.7,1.8,7.8,4.2,10.5,8.2
					c2.6,4.3,2.7,9.8,0.3,14.4c-2.6,5-7.4,8-12.8,8c-1,0-1.9-0.1-2.9-0.3L327,154.4z M320.3,147.1l2.7,1.5l-3.1-24.7l2.5,1
					c1.4,0.5,2.8,0.8,4.2,0.8c4.1,0,7.8-2.3,9.9-6.2c1.9-3.6,1.9-7.9-0.1-11.1c-2.2-3.3-5.8-5.3-9.3-7.1l-4.8-2.6l-20.6,38.4
					l2.2,1.2l9.4-17.4l4.2,2.3L320.3,147.1z M325.9,123.9L325.9,123.9c-3.3,0-6.8-1.6-9.1-2.9l-3.1-1.7l9.6-17.9l2.8,1.6
					c8.3,4.6,11,9.9,7.9,15.7C332.2,122.1,329.5,123.9,325.9,123.9z M318.1,118l0.3,0.2c2,1.1,4.9,2.5,7.5,2.5l0,0
					c2.3,0,4-1.1,5.3-3.5c2.1-4,0.1-7.5-6.6-11.3L318.1,118z"/>
			</g>
			<g id="svg_13">
				<path class="st0" d="M362.9,146.8L362.9,146.8l-27.8,14.6l-3.8-4.7l44.5-22.5l-19.1,35.5l39-10.1l-32.6,37.7l-3.8-4.7l21-23.5
					v-0.2l-33.8,8.6L362.9,146.8z"/>
				<path class="st0" d="M363.1,199.8l-5.8-7.3l18.6-20.8l-32.4,8.3l15.6-29.4l-24.3,12.8l-5.8-7.3l50.8-25.7l-19.8,36.7l40.5-10.5
					L363.1,199.8z M361.5,192.6l1.7,2.1l28-32.3l-37.6,9.8L372,138l-38.1,19.3l1.7,2.1l31.2-16.5l-17.1,32.2l32.2-8.2v2.9
					L361.5,192.6z"/>
			</g>
			<g id="svg_14">
				<path class="st0" d="M379.7,213.1l-12.6-3l-1.3-6.2l52.3,12.4l-43.5,31.5l-1.3-6.2l10.5-7.5L379.7,213.1L379.7,213.1z
					 M405.6,218.7l-20.3-4.5l3.2,16.3L405.6,218.7z"/>
				<path class="st0" d="M373.5,250.5l-2-9.7l10.5-7.5l-3.7-19l-12.6-3l-2.1-9.7l58.3,13.8L373.5,250.5z M375.1,242.3l0.6,2.7
					l38.7-28l-46.4-11l0.6,2.7l12.6,3l4.5,23.1L375.1,242.3z M387.4,233.2l-4.1-21.2l26.3,5.8L387.4,233.2z M387.4,216.3l2.2,11.5
					l12-8.3L387.4,216.3z"/>
			</g>
		</g>
		<g id="svg_15">
			<g id="svg_16">
				<path class="st0" d="M157.9,305.1l16.9,23.5l-4.9,3.6l-12.9-18l-12.2,8.8l12.6,17.4l-4.9,3.6l-12.6-17.4l-16.5,12l12.9,18
					l-4.9,3.6l-16.9-23.5L157.9,305.1L157.9,305.1z"/>
				<path class="st0" d="M131.3,361.4l-18-25l44.9-32.6l18,25l-6.4,4.7l-12.9-18l-10.7,7.7l12.6,17.4l-6.4,4.7l-12.6-17.5l-15,10.9
					l12.9,18L131.3,361.4z M115.9,336.8l15.8,21.9l3.4-2.5l-12.9-18l18-13.1l12.6,17.4l3.4-2.5l-12.6-17.5l13.7-9.9l12.9,18l3.4-2.5
					l-15.8-21.9L115.9,336.8z"/>
			</g>
			<g id="svg_17">
				<path class="st0" d="M178.2,332.3l6.4,4.3l-1.9,22.3l20.6-9.8l6.4,4.3l-27.2,12.6l-2.3,32.5l-6.2-4.1l1.9-25.3L152.7,380
					l-6.2-4.1l29.8-13.9L178.2,332.3L178.2,332.3z"/>
				<path class="st0" d="M181.1,400.2l-8-5.3l1.8-24.3L152.6,381l-8-5.3l30.8-14.4l1.9-30.7l8.2,5.5l-1.8,21.3l19.6-9.3l8.2,5.5
					l-28.2,13L181.1,400.2z M175,393.9l4.4,2.9l2.2-31.4l26.2-12.1l-4.6-3.1l-21.6,10.2l2-23.4L179,334l-1.8,28.6L148.4,376l4.4,2.9
					l24.2-11.3L175,393.9z"/>
			</g>
			<g id="svg_18">
				<path class="st0" d="M206.7,408.3l-6.4-1.7l14.3-51.8l7.5,2.1c15.9,4.3,19.3,11.3,16.9,20.8c-3,10.9-12.6,12.8-22.3,10.1
					l-3.8-0.9L206.7,408.3L206.7,408.3z M214.4,380.7l2.1,0.6c6.6,1.9,14.1,2.6,16.3-5.6c2.3-8.1-5.3-11.3-11.6-12.9l-1.7-0.6
					L214.4,380.7L214.4,380.7z"/>
				<path class="st0" d="M207.3,409.4l-8.2-2.2l14.8-53.6l8.4,2.3c15,4.1,20.4,10.8,17.5,22c-2.1,7.7-7.7,11.9-15.8,11.9
					c-2.4,0-5-0.4-7.7-1.1l-2.9-0.7L207.3,409.4z M201.5,405.9l4.6,1.2l6.2-21.4l4.6,1.2c2.5,0.7,5,1,7.2,1c5.1,0,11.6-1.8,14-10.5
					c2.6-10.1-2.1-15.9-16.2-19.7l-6.6-1.8L201.5,405.9z M223.7,383.4C223.7,383.4,223.7,383.4,223.7,383.4c-2.1,0-4.6-0.4-7.5-1.3
					l-3-0.8l5.6-20.4l2.6,0.9c3.8,1,9.3,2.8,11.6,6.9c1.2,2.1,1.4,4.5,0.6,7.2C232.3,380.9,229,383.4,223.7,383.4z M215.5,380.1
					l1.2,0.3c2.8,0.8,5.1,1.2,7,1.2c4.4,0,7-2,8.1-6.2c0.6-2.2,0.5-4.1-0.5-5.8c-2-3.4-6.9-5.1-10.5-6l-0.8-0.3L215.5,380.1z"/>
			</g>
			<g id="svg_19">
				<path class="st0" d="M284,414.5l-8.1,0.4l-17.1-21.9l-2.8,0.2l1.1,22.7l-6.8,0.4l-2.8-53.7l8.1-0.4c4.7-0.2,9.9-0.4,14.3,1.7
					c4.7,2.4,7.5,7.3,7.7,12.4c0.4,7.7-4.3,14.4-12.2,15.8L284,414.5z M255.9,387.7l2.1-0.2c6.8-0.4,14.3-2.1,13.7-10.5
					c-0.4-8.4-8.4-9.2-15-8.8h-1.9L255.9,387.7L255.9,387.7z"/>
				<path class="st0" d="M249.5,417.2l-2.9-55.5l9-0.4c1.4-0.1,2.8-0.1,4.2-0.1c3.1,0,7,0.2,10.5,1.9c4.9,2.5,8,7.6,8.2,13.2
					c0.4,7.9-4.2,14.5-11.4,16.4l18.8,22.8l-10.4,0.5l-17.1-21.9L257,394l1.1,22.7L249.5,417.2z M248.6,363.4l2.7,51.8l4.9-0.3
					l-1.1-22.7l4.2-0.3l17.1,22l5.7-0.3l-18.4-22.3l1.6-0.3c7.1-1.2,11.8-7.3,11.4-14.8c-0.2-4.9-2.9-9.4-7.2-11.6
					c-3.1-1.5-6.8-1.7-9.7-1.7c-1.4,0-2.8,0.1-4.1,0.1L248.6,363.4z M255,388.7l-1.2-21.5h2.9c0.8,0,1.6-0.1,2.5-0.1
					c8.6,0,13.2,3.3,13.5,9.8c0.2,2.9-0.5,5.4-2.1,7.2c-3,3.4-8.5,4.1-12.4,4.3L255,388.7z M255.7,369.1l1,17.6l1.1-0.1
					c3.6-0.2,8.6-0.8,11.2-3.7c1.3-1.5,1.8-3.4,1.7-5.8c-0.2-5.5-3.9-8-11.6-8c-0.8,0-1.6,0-2.4,0.1L255.7,369.1L255.7,369.1z"/>
			</g>
			<g id="svg_20">
				<path class="st0" d="M281.6,359.9l27.2-9.9l2.1,5.8l-20.8,7.5l5.1,14.1l20.3-7.3l2.1,5.8l-20.3,7.3l6.9,19.1l20.8-7.5l2.1,5.8
					l-27.2,9.9L281.6,359.9L281.6,359.9z"/>
				<path class="st0" d="M299.2,411.7l-18.8-52.4l29-10.6l2.7,7.6l-20.8,7.5l4.4,12.3l20.3-7.3l2.7,7.6l-20.3,7.3l6.3,17.4l20.8-7.5
					l2.7,7.6L299.2,411.7z M282.8,360.5l17.6,48.9l25.4-9.3l-1.4-4l-20.8,7.5l-7.6-20.9l20.3-7.3l-1.4-4l-20.3,7.3l-5.7-15.8
					l20.8-7.5l-1.4-4L282.8,360.5z"/>
			</g>
			<g id="svg_21">
				<path class="st0" d="M338,341.3c-3.6-1.5-6.8-1.3-9.9,1.1c-3.4,2.6-5.4,7.7-2.6,11.4c2.6,3.4,7.1,2.6,10.7,1.7l3.9-1.1
					c7.9-2.3,15-2.3,20.4,4.9c5.8,7.7,4.1,18-3.6,23.8c-6.9,5.3-16.1,4.3-22.3-1.9l4.5-5.3c3.6,4.7,9.9,5.3,14.4,1.9
					c4.7-3.6,4.9-9.9,1.5-14.3c-3.6-4.7-8.6-3.8-13.5-2.4l-3.9,0.9c-6.6,1.7-12.9,2.2-17.6-3.8c-5.2-6.9-2.2-15.8,4.1-20.6
					c4.7-3.6,10.5-4.3,15.9-1.9L338,341.3z"/>
				<path class="st0" d="M347,387.5c-4.8,0-9.4-2-13-5.6l-0.6-0.6l5.8-6.8l0.7,0.9c1.8,2.3,4.4,3.7,7.3,3.7c2.1,0,4.1-0.7,5.8-2
					c1.9-1.4,3.1-3.4,3.4-5.8c0.3-2.5-0.4-5.1-2-7.2c-1.6-2.1-3.7-3.1-6.5-3.1c-2,0-4.1,0.5-6.1,1l-4,0.9c-3.1,0.8-5.5,1.2-7.7,1.2
					c-4.6,0-8.2-1.7-10.9-5.3c-5.8-7.7-2.1-17,4.3-22c5-3.8,11.3-4.5,16.9-2l0.8,0.4l-2.7,7.2l-0.9-0.4c-3.4-1.5-6.2-1.1-9,1
					c-3.1,2.4-4.9,6.9-2.4,10.1c1.1,1.4,2.7,2.1,4.9,2.1c1.7,0,3.5-0.4,4.8-0.8l3.9-1.1c3.2-0.9,6-1.4,8.4-1.4c5.4,0,9.6,2.1,13,6.6
					c6.1,8.1,4.5,18.9-3.7,25.1C354.4,386.3,350.8,387.5,347,387.5z M335.9,381.2c3.1,2.9,7,4.4,11,4.4c3.4,0,6.6-1.1,9.4-3.2
					c7.4-5.6,8.9-15.3,3.4-22.5c-3-4-6.7-5.8-11.5-5.8c-2.3,0-4.9,0.4-7.9,1.3l-3.9,1.1c-1.5,0.4-3.4,0.8-5.3,0.8
					c-2.8,0-4.9-1-6.4-2.8c-3.1-4.2-1-9.8,2.8-12.8c3.1-2.4,6.3-2.9,10-1.6l1.4-3.7c-4.8-1.8-10-1.1-14.2,2.1
					c-5.7,4.4-9,12.6-3.9,19.3c2.4,3.1,5.4,4.5,9.4,4.5c2,0,4.2-0.3,7.2-1.1l4-0.9c2.1-0.6,4.4-1.1,6.5-1.1c3.4,0,6,1.3,7.9,3.9
					c1.9,2.4,2.8,5.6,2.4,8.6c-0.4,2.8-1.8,5.3-4.1,7c-2.1,1.5-4.5,2.3-7,2.3c-3.1,0-6-1.3-8.1-3.5L335.9,381.2z"/>
			</g>
			<g id="svg_22">
				<path class="st0" d="M361.1,313.4c-3.9-0.4-6.8,0.8-9.2,4.1c-2.4,3.6-2.8,9,0.9,11.8c3.4,2.4,7.7,0.4,10.7-1.7l3.4-2.2
					c6.9-4.5,13.7-6.6,21-1.5c7.9,5.6,9.2,15.9,3.6,23.8c-5.1,7.1-14.3,8.8-22,4.7l2.8-6.4c4.7,3.6,11.1,2.2,14.4-2.4
					c3.4-4.7,1.9-10.9-2.8-14.3c-4.7-3.4-9.4-1.1-13.7,1.7l-3.4,2.1c-5.6,3.4-11.8,6-17.8,1.5c-7.1-5.1-6.8-14.4-2.1-21
					c3.6-4.9,8.8-7.1,14.6-6.6L361.1,313.4L361.1,313.4z"/>
				<path class="st0" d="M378.1,355.5c-3.1,0-6.2-0.8-9-2.3l-0.8-0.4l3.6-8.3l0.9,0.7c1.6,1.2,3.4,1.8,5.4,1.8c3,0,5.9-1.5,7.7-4.1
					c2.9-4.1,1.8-9.8-2.6-12.9c-1.4-1-2.9-1.5-4.5-1.5c-2.8,0-5.7,1.6-8.2,3.2l-3.4,2.1c-3.3,2-7.3,4-11.4,4c-2.7,0-5.2-0.9-7.5-2.6
					c-3.1-2.2-5-5.3-5.7-9c-0.7-4.4,0.5-9.3,3.4-13.3c3.7-5,9.3-7.6,15.5-7l0.9,0.1l-0.7,8.2l-0.9-0.1c-3.7-0.3-6.1,0.7-8.3,3.7
					c-2.2,3.2-2.5,8.1,0.7,10.5c2.3,1.7,5.6,1.1,9.6-1.7l3.4-2.3c4.9-3.2,8.9-4.6,12.8-4.6c3.2,0,6.3,1,9.3,3.1
					c8.2,5.9,9.8,16.7,3.8,25.1C389,352.9,383.8,355.5,378.1,355.5z M370.8,352c2.4,1.1,4.9,1.7,7.4,1.7c5.1,0,9.6-2.4,12.6-6.5
					c5.4-7.6,4-17.3-3.3-22.5c-6-4.2-11.7-3.8-20,1.5l-3.4,2.2c-4.7,3.2-8.8,3.8-11.8,1.7c-4.2-3.1-3.9-9.1-1.2-13.1
					c2.4-3.3,5.3-4.7,9.1-4.6l0.4-4.5c-5.3-0.2-9.7,2-12.9,6.2c-2.6,3.6-3.7,8-3.1,11.9c0.5,3.2,2.2,5.9,4.9,7.8
					c2,1.5,4.1,2.2,6.4,2.2c3.7,0,7.3-1.9,10.4-3.8l3.4-2.1c2.7-1.7,5.9-3.5,9.2-3.5c2,0,3.8,0.6,5.6,1.9c5.3,3.8,6.6,10.6,3,15.6
					c-2.2,3-5.6,4.9-9.2,4.9c-2,0-3.9-0.5-5.6-1.6L370.8,352z"/>
			</g>
		</g>
	</g>
</g>
<title>Layer 1</title>
</svg>
