<svg width="360" height="216" xmlns="http://www.w3.org/2000/svg">

 <g>
  <title>background</title>
  <rect fill="none" id="canvas_background" height="402" width="582" y="-1" x="-1"/>
 </g>
 <g>
  <title>Layer 1</title>
  <g id="svg_23">
   <circle id="svg_1" r="52.700001" cy="104.6" cx="183.299989" stroke-miterlimit="10" stroke-width="3.4485" stroke="#FFFFFF" fill="none"/>
   <path id="svg_2" d="m187.799989,134c0.3,1 0.7,1.9 1.2,3.4c-1.4,-0.6 -2.6,-1 -3.6,-1.6c-1,-0.5 -1.9,-1.2 -2.7,-2c-4,-3.8 -8.4,-3.5 -13.1,-1.3c-4.5,2.1 -9.2,3.8 -13.8,5.7c-0.2,-0.2 -0.3,-0.4 -0.5,-0.6c1.2,-1.1 2.3,-2.5 3.6,-3.4c1.7,-1.2 3.6,-2.1 5.5,-3.2c2.6,-1.5 4.7,-3.6 5.7,-6.5c0.6,-1.6 0.1,-2.9 -0.9,-4c-1.1,-1.2 -2.4,-1.8 -4.1,-1.3c-2.7,0.8 -5.3,1.9 -8.1,2.5c-4.2,0.8 -8.5,1.2 -13,1.8c0,-1.4 0,-2.2 0,-3.3c5.3,-1 10.6,-2.6 15,-6.1c-0.1,-0.2 -0.1,-0.5 -0.2,-0.7c-1.8,0.6 -3.7,0.9 -5.3,1.8c-3.9,2.1 -7.8,3 -12.1,2c-0.8,-0.2 -1.6,-0.6 -2.4,-1c0.6,-0.7 1,-1.5 1.7,-1.9c4.6,-2.6 9.2,-5.1 13.8,-7.7c0.5,-0.3 1.1,-0.4 1.4,-0.8c0.4,-0.6 0.4,-1.4 0.6,-2c-0.6,-0.1 -1.2,-0.4 -1.7,-0.3c-1.4,0.4 -2.8,1.1 -4.3,1.5c-2.7,0.8 -3.9,0.1 -5,-2.9c3.8,-2.1 7.7,-4.3 11.6,-6.5c2.6,-1.5 3.4,-3.5 2.3,-6.2c-2.3,0.2 -4.7,0.5 -7.3,0.8c0.8,-2.2 2.4,-3.3 4.2,-4.4c3.7,-2.2 7.4,-4.6 11,-6.9c0.5,-0.3 0.9,-0.8 1.4,-1.2c-0.1,-0.2 -0.2,-0.3 -0.2,-0.5c-0.7,0.2 -1.4,0.4 -2.1,0.5c-0.4,0.1 -0.8,0.1 -1.2,0.1c0,-0.5 -0.1,-1.1 0.1,-1.4c1.6,-1.6 3.3,-3.1 5.1,-4.6c-1.5,-1.1 -0.6,-2.2 0.8,-3.2c1.2,-0.9 2.5,-1.7 3.6,-2.7c1.9,-1.7 3.6,-3.5 5.7,-5.6c1.1,0.8 2.8,1.7 4,3c2.5,2.8 5.6,4.4 9.1,5.5c2.1,0.7 4.3,1.4 6.2,2.6c1.6,0.9 2.7,2.5 4.5,4.1c-1.9,0.5 -3.2,0.8 -4.9,1.3c3,1.1 5.6,2.1 7.2,4.8c-3.8,-0.2 -7,-3 -10.7,-1.9c-0.1,0.3 -0.2,0.6 -0.4,0.9c7,4.4 14,8.7 20.9,13.1c-0.1,0.3 -0.2,0.6 -0.3,0.9c-3.1,-0.4 -6.2,-0.8 -9.2,-1.1c-0.7,-0.1 -1.5,0.2 -2.2,0.3c0,0.3 0,0.5 0,0.8c2.8,0.8 5.6,1.7 8.4,2.5c1.3,0.4 2.6,0.6 3.8,1c0.5,0.2 0.8,0.6 1.2,1c-0.4,0.3 -0.8,0.8 -1.3,0.8c-2.9,0.4 -5.7,0.7 -8.6,1c-0.8,0.1 -1.5,0.2 -2.3,0.6c3.4,0.3 6.7,1.1 9.4,3.3c2.6,2 5.6,3.6 7.4,6.8c-3,1.1 -5.5,0.9 -8,-0.1c-2.1,-0.9 -3.9,-0.3 -5.8,1.2c6.4,2.3 12.6,4.8 16.6,10.8c-2.6,1.2 -4.8,0.6 -7.2,-0.1c-4.2,-1.4 -8.3,-2.9 -12.5,-4c-3.3,-0.9 -6.8,-1.2 -10.2,-1.8c-2.2,-0.4 -4.2,1 -4.2,3.5c0,4.7 1.9,8.6 5.7,11.6c1.7,1.3 3.3,2.8 5.1,4.4c-2.3,1 -4,0.4 -5.8,-0.3c-2.7,-1.1 -5.4,-2.2 -8.1,-3.3c-0.3,0.2 -0.4,0.4 -0.5,0.5zm-29.9,-32.7c-0.1,0.3 -0.2,0.5 -0.2,0.8c0.7,0.6 1.5,1.9 2.1,1.8c2.1,-0.4 4.2,-1.2 6.3,-1.9c0.3,-0.1 0.6,-0.9 0.5,-1.3c0,-0.3 -0.7,-0.7 -1.1,-0.7c-2.5,0.4 -5,0.9 -7.6,1.3zm48.5,10.2c1.6,0.1 2.7,-0.6 2.8,-1.8c0.1,-1.4 -1.5,-2.8 -3.6,-2.8c-1.3,0 -2.6,0 -3,1.6c-0.3,1.2 1.9,2.9 3.8,3zm-7.2,-2.7c0,0 0,-0.1 0,-0.1c0.3,0 0.6,0.1 0.8,0c0.8,-0.5 1.5,-1 2.3,-1.5c-0.6,-0.7 -1.3,-1.9 -1.9,-1.9c-1.9,0 -3.8,0.5 -5.7,0.8c-0.3,0.1 -0.7,0.7 -0.6,1c0,0.3 0.6,0.7 0.9,0.8c1.4,0.4 2.8,0.6 4.2,0.9zm-30.9,-19c-1.4,-1.2 -2,-2.2 -2.9,-2.4c-1.8,-0.4 -4.4,1.1 -4,1.9c0.5,1.2 1.6,3.1 2.4,3c1.4,-0.1 2.7,-1.3 4.5,-2.5zm3.9,21.7c0,-1.9 -1.3,-3.6 -3.1,-4c-0.5,-0.1 -1.2,0 -1.6,0.3c-0.3,0.2 -0.3,1 -0.1,1.4c0.7,1.4 1.5,2.7 2.4,4.1c0.3,0.4 1,0.9 1.2,0.7c0.4,-0.2 0.8,-0.8 1,-1.3c0.2,-0.5 0.1,-1 0.2,-1.2zm4.5,-32c-0.9,-0.3 -1.9,-1 -2.2,-0.8c-1.5,1.1 -2.9,2.4 -4.2,3.8c-0.3,0.3 -0.3,1.2 -0.1,1.4c0.4,0.3 1.2,0.4 1.6,0.2c1.4,-0.9 2.7,-1.9 4,-2.9c0.3,-0.3 0.4,-0.8 0.9,-1.7zm16.8,10.1c0.4,-0.3 1.5,-0.7 1.7,-1.4c0.4,-1.1 -1.4,-2.8 -2.8,-2.5c-1.1,0.2 -3,1.1 -3,1.7c0,2.1 2.1,1.7 4.1,2.2zm-8.3,9.5c-0.2,-1.9 -0.4,-3.6 -2.2,-3.4c-0.8,0 -1.9,1.1 -2.2,2c-0.4,1 1.8,2.8 3.2,2.6c0.6,-0.2 1,-0.9 1.2,-1.2zm-3.7,14c0.4,-0.4 1.2,-1 1.4,-1.8c0.3,-1.1 -1.9,-3 -3.1,-2.6c-0.5,0.2 -1.1,1.1 -1.2,1.8c-0.1,1.5 0.7,2.5 2.9,2.6zm-2.3,-25.5c1.2,-0.4 2.3,-0.5 3.3,-1.1c0.5,-0.3 0.6,-1.1 0.9,-1.7c-0.5,-0.3 -1.1,-0.8 -1.6,-0.7c-1.1,0.2 -2.1,0.6 -3.1,1.1c-0.5,0.3 -0.7,0.9 -1.1,1.4c0.5,0.4 1.1,0.7 1.6,1zm-9,-2.7c-1.1,1 -1.8,1.7 -2.6,2.5c0.7,0.7 1.3,1.6 2.1,1.9c1,0.3 2.8,-1.4 2.5,-2.4c-0.1,-0.7 -1,-1.1 -2,-2zm11.1,-8.4c-2.1,0.1 -4.4,1.5 -4.1,2.4c0.1,0.4 1,0.9 1.6,0.9c1.6,0.1 3.6,-1.3 3.4,-2.3c-0.1,-0.5 -0.8,-0.9 -0.9,-1zm20.8,16.8c0.1,0.1 0.3,0.2 0.4,0.3c0.4,-0.5 0.7,-1 1.1,-1.5c-1.2,-0.5 -2.4,-1 -3.6,-1.4c-0.2,-0.1 -0.7,0.7 -1,1.1c1,0.5 1.9,1 2.9,1.5c0.1,0 0.2,0 0.2,0zm-17.6,-5.8c1.7,-0.2 3.5,0 4,-2c0.1,-0.3 -0.8,-1.2 -1.4,-1.3c-1.2,-0.3 -2.4,1.2 -2.6,3.3zm-7.1,24.4c-0.8,-1.1 -1.5,-1.9 -2.1,-2.8c-0.4,0.6 -1,1.1 -1,1.7c-0.2,1.1 0.1,2.4 1.5,2.5c0.4,0 0.8,-0.7 1.6,-1.4zm1.4,-18.6c-0.8,1 -1.8,1.8 -1.7,2.1c0.4,0.7 1.2,1.3 1.9,1.9c0.5,-0.6 1.3,-1.2 1.3,-1.8c0,-0.7 -0.8,-1.3 -1.5,-2.2zm6.8,-14.1c0.9,-0.8 1.5,-1.3 2,-1.8c-0.6,-0.4 -1.1,-1.2 -1.7,-1.2c-0.7,0 -1.3,0.8 -1.9,1.2c0.5,0.5 0.9,1 1.6,1.8zm-10.3,18.8c0.2,-0.4 0.5,-0.7 0.7,-1.1c-0.7,-0.4 -1.3,-0.9 -2,-1.1c-0.7,-0.2 -1.5,0.1 -2.2,0.1c0.4,0.6 0.7,1.4 1.3,1.7c0.6,0.4 1.5,0.3 2.2,0.4zm12.9,-20.1c0,0.3 0,0.5 0,0.8c1.1,0.1 2.3,0.2 3.4,0.3c0,-0.5 0.1,-1.1 -0.2,-1.3c-1.1,-1.1 -2.2,-0.6 -3.2,0.2zm-15.2,-3c-0.2,-0.1 -0.4,-0.3 -0.6,-0.4c-0.9,0.7 -1.9,1.4 -2.8,2.1c0.1,0.3 0.2,0.5 0.4,0.8c0.7,-0.2 1.6,-0.3 2.2,-0.8c0.4,-0.3 0.5,-1.1 0.8,-1.7z" fill="#2C9560"/>
   <circle id="svg_3" r="102.699997" cy="107.5" cx="179.999989" stroke-miterlimit="10" stroke-width="6.8969" stroke="#FFFFFF" fill="none"/>
   <path id="svg_4" d="m105.499989,114.2c-6.3,-1 -7.9,8.8 -1.5,9.8s7.8,-8.8 1.5,-9.8z" fill="#FFFFFF"/>
   <path id="svg_5" d="m258.899989,114.2c-6.3,-1 -7.9,8.8 -1.5,9.8c6.3,1 7.9,-8.8 1.5,-9.8z" fill="#FFFFFF"/>
   <g id="svg_6">
    <path id="svg_7" d="m104.799989,82c-1.7,0.5 -2.8,1.5 -3.2,3.4c-0.5,1.9 0.4,4.4 2.5,4.9c1.9,0.5 3.3,-1.2 4.3,-2.6l1.1,-1.6c2.2,-3.1 4.7,-5.3 8.7,-4.3c4.4,1 6.8,5.2 5.7,9.6c-0.9,3.9 -4.6,6.3 -8.6,5.9l0.1,-3.2c2.7,0.7 5.1,-1 5.7,-3.6s-1.1,-5 -3.7,-5.6c-2.6,-0.6 -4.2,1.2 -5.6,3.1l-1.1,1.5c-1.8,2.5 -4,4.6 -7.4,3.8c-3.9,-0.9 -5.5,-5 -4.6,-8.6c0.6,-2.7 2.5,-4.6 5.2,-5.4l0.9,2.7z" stroke-miterlimit="10" stroke-width="1.7242" stroke="#FFFFFF" fill="#FFFFFF"/>
    <path id="svg_8" d="m120.899989,60.9l-8.6,-5.2l1.6,-2.7l21.4,13l-1.6,2.7l-10.3,-6.2l-6.2,10.2l10.3,6.2l-1.6,2.7l-21.4,-13l1.6,-2.7l8.6,5.2l6.2,-10.2z" stroke-miterlimit="10" stroke-width="1.7242" stroke="#FFFFFF" fill="#FFFFFF"/>
    <path id="svg_9" d="m137.799989,55l1.5,6.7l-2.7,2l-6.1,-28l25.2,13.6l-2.7,2l-6,-3.3l-9.2,7zm-3.2,-13.8l2.5,10.7l7.1,-5.3l-9.6,-5.4z" stroke-miterlimit="10" stroke-width="1.7242" stroke="#FFFFFF" fill="#FFFFFF"/>
    <path id="svg_10" d="m158.799989,41.2l2.2,-19.6l11.5,16l2.3,-19.1l3.3,-0.9l-3.5,27.7l-11.4,-15.9l-2.2,19.5l-16.8,-22.4l3.3,-0.9l11.3,15.6z" stroke-miterlimit="10" stroke-width="1.7242" stroke="#FFFFFF" fill="#FFFFFF"/>
    <path id="svg_11" d="m186.099989,37.9l-3.7,5.8l-3.3,-0.4l15.3,-24.2l8.4,27.4l-3.3,-0.4l-2,-6.6l-11.4,-1.6zm7.4,-12l-5.7,9.4l8.8,1.2l-3.1,-10.6z" stroke-miterlimit="10" stroke-width="1.7242" stroke="#FFFFFF" fill="#FFFFFF"/>
    <path id="svg_12" d="m219.499989,55.8l-3.3,-1.8l-1.5,-12.8l-1.1,-0.6l-5,9.3l-2.7,-1.5l11.8,-22l3.3,1.8c2,1 4,2.2 5.3,4.1c1.3,2.1 1.2,4.7 0.1,6.8c-1.7,3.2 -5.2,4.6 -8.6,3.3l1.7,13.4zm-4.8,-17.5l0.9,0.5c2.8,1.5 6.1,2.6 8,-0.9c1.8,-3.4 -1.2,-5.7 -3.9,-7.2l-0.7,-0.4l-4.3,8z" stroke-miterlimit="10" stroke-width="1.7242" stroke="#FFFFFF" fill="#FFFFFF"/>
    <path id="svg_13" d="m239.199989,51.7l0,0l-14.8,7.8l-2,-2.5l23.7,-12l-10.2,18.9l20.8,-5.4l-17.4,20.1l-2,-2.5l11.2,-12.5l0,-0.1l-18,4.6l8.7,-16.4z" stroke-miterlimit="10" stroke-width="1.7242" stroke="#FFFFFF" fill="#FFFFFF"/>
    <path id="svg_14" d="m247.599989,86.5l-6.7,-1.6l-0.7,-3.3l27.9,6.6l-23.2,16.8l-0.7,-3.3l5.6,-4l-2.2,-11.2zm13.8,3l-10.8,-2.4l1.7,8.7l9.1,-6.3z" stroke-miterlimit="10" stroke-width="1.7242" stroke="#FFFFFF" fill="#FFFFFF"/>
   </g>
   <g id="svg_15">
    <path id="svg_16" d="m130.999989,137.7l9,12.5l-2.6,1.9l-6.9,-9.6l-6.5,4.7l6.7,9.3l-2.6,1.9l-6.7,-9.3l-8.8,6.4l6.9,9.6l-2.6,1.9l-9,-12.5l23.1,-16.8z" stroke-miterlimit="10" stroke="#FFFFFF" fill="#FFFFFF"/>
    <path id="svg_17" d="m141.799989,152.2l3.4,2.3l-1,11.9l11,-5.2l3.4,2.3l-14.5,6.7l-1.2,17.3l-3.3,-2.2l1,-13.5l-12.4,5.8l-3.3,-2.2l15.9,-7.4l1,-15.8z" stroke-miterlimit="10" stroke="#FFFFFF" fill="#FFFFFF"/>
    <path id="svg_18" d="m156.999989,192.7l-3.4,-0.9l7.6,-27.6l4,1.1c8.5,2.3 10.3,6 9,11.1c-1.6,5.8 -6.7,6.8 -11.9,5.4l-2,-0.5l-3.3,11.4zm4.1,-14.7l1.1,0.3c3.5,1 7.5,1.4 8.7,-3c1.2,-4.3 -2.8,-6 -6.2,-6.9l-0.9,-0.3l-2.7,9.9z" stroke-miterlimit="10" stroke="#FFFFFF" fill="#FFFFFF"/>
    <path id="svg_19" d="m198.199989,196l-4.3,0.2l-9.1,-11.7l-1.5,0.1l0.6,12.1l-3.6,0.2l-1.5,-28.6l4.3,-0.2c2.5,-0.1 5.3,-0.2 7.6,0.9c2.5,1.3 4,3.9 4.1,6.6c0.2,4.1 -2.3,7.7 -6.5,8.4l9.9,12zm-15,-14.3l1.1,-0.1c3.6,-0.2 7.6,-1.1 7.3,-5.6c-0.2,-4.5 -4.5,-4.9 -8,-4.7l-1,0l0.6,10.4z" stroke-miterlimit="10" stroke="#FFFFFF" fill="#FFFFFF"/>
    <path id="svg_20" d="m196.899989,166.9l14.5,-5.3l1.1,3.1l-11.1,4l2.7,7.5l10.8,-3.9l1.1,3.1l-10.8,3.9l3.7,10.2l11.1,-4l1.1,3.1l-14.5,5.3l-9.7,-27z" stroke-miterlimit="10" stroke="#FFFFFF" fill="#FFFFFF"/>
    <path id="svg_21" d="m226.999989,157c-1.9,-0.8 -3.6,-0.7 -5.3,0.6c-1.8,1.4 -2.9,4.1 -1.4,6.1c1.4,1.8 3.8,1.4 5.7,0.9l2.1,-0.6c4.2,-1.2 8,-1.2 10.9,2.6c3.1,4.1 2.2,9.6 -1.9,12.7c-3.7,2.8 -8.6,2.3 -11.9,-1l2.4,-2.8c1.9,2.5 5.3,2.8 7.7,1c2.5,-1.9 2.6,-5.3 0.8,-7.6c-1.9,-2.5 -4.6,-2 -7.2,-1.3l-2.1,0.5c-3.5,0.9 -6.9,1.2 -9.4,-2c-2.8,-3.7 -1.2,-8.4 2.2,-11c2.5,-1.9 5.6,-2.3 8.5,-1l-1.1,2.9z" stroke-miterlimit="10" stroke="#FFFFFF" fill="#FFFFFF"/>
    <path id="svg_22" d="m239.299989,142.1c-2.1,-0.2 -3.6,0.4 -4.9,2.2c-1.3,1.9 -1.5,4.8 0.5,6.3c1.8,1.3 4.1,0.2 5.7,-0.9l1.8,-1.2c3.7,-2.4 7.3,-3.5 11.2,-0.8c4.2,3 4.9,8.5 1.9,12.7c-2.7,3.8 -7.6,4.7 -11.7,2.5l1.5,-3.4c2.5,1.9 5.9,1.2 7.7,-1.3s1,-5.8 -1.5,-7.6c-2.5,-1.8 -5,-0.6 -7.3,0.9l-1.8,1.1c-3,1.8 -6.3,3.2 -9.5,0.8c-3.8,-2.7 -3.6,-7.7 -1.1,-11.2c1.9,-2.6 4.7,-3.8 7.8,-3.5l-0.3,3.4z" stroke-miterlimit="10" stroke="#FFFFFF" fill="#FFFFFF"/>
   </g>
  </g>
 </g>
</svg>