<?xml version="1.0" encoding="utf-8"?>
<!-- Generator: Adobe Illustrator 16.0.0, SVG Export Plug-In . SVG Version: 6.00 Build 0)  -->
<!DOCTYPE svg PUBLIC "-//W3C//DTD SVG 1.1//EN" "http://www.w3.org/Graphics/SVG/1.1/DTD/svg11.dtd">
<svg version="1.1" id="Layer_1" xmlns="http://www.w3.org/2000/svg" xmlns:xlink="http://www.w3.org/1999/xlink" x="0px" y="0px"
	 width="500px" height="500px" viewBox="0 0 500 500" enable-background="new 0 0 500 500" xml:space="preserve">
<g>
	<title>Layer 1</title>
	<g id="svg_23">
		<g id="svg_1">
			<path fill="#FFFFFF" d="M256.042,345.114c-56.3,0-102.103-45.804-102.103-102.104c0-56.3,45.803-102.105,102.103-102.105
				c56.304,0,102.104,45.804,102.104,102.105S312.346,345.114,256.042,345.114z M256.042,147.374
				c-52.733,0-95.634,42.902-95.634,95.636c0,52.732,42.901,95.635,95.634,95.635c52.733,0,95.64-42.901,95.64-95.635
				C351.682,190.276,308.775,147.374,256.042,147.374z"/>
		</g>
		<g id="svg_2">
			<path fill="#2C9661" d="M264.484,298.168c0.562,1.876,1.313,3.564,2.254,6.379c-2.627-1.129-4.881-1.876-6.758-3.005
				c-1.875-0.938-3.562-2.249-5.063-3.752c-7.504-7.127-15.76-6.565-24.576-2.437c-8.442,3.938-17.262,7.127-25.892,10.69
				c-0.373-0.374-0.56-0.752-0.938-1.125c2.254-2.062,4.317-4.688,6.754-6.38c3.191-2.249,6.757-3.938,10.318-6.001
				c4.881-2.813,8.819-6.754,10.696-12.195c1.125-3.001,0.187-5.44-1.689-7.505c-2.063-2.252-4.503-3.377-7.691-2.438
				c-5.068,1.502-9.945,3.562-15.196,4.688c-7.882,1.502-15.947,2.253-24.389,3.378c0-2.628,0-4.129,0-6.191
				c9.941-1.875,19.886-4.877,28.142-11.443c-0.19-0.373-0.19-0.938-0.378-1.311c-3.375,1.125-6.94,1.686-9.94,3.373
				c-7.318,3.938-14.635,5.629-22.704,3.754c-1.499-0.375-3.001-1.125-4.5-1.877c1.125-1.312,1.876-2.814,3.188-3.564
				c8.629-4.878,17.258-9.566,25.892-14.444c0.938-0.562,2.063-0.75,2.623-1.502c0.751-1.125,0.751-2.626,1.129-3.752
				c-1.129-0.188-2.254-0.75-3.192-0.562c-2.627,0.75-5.251,2.064-8.065,2.814c-5.067,1.5-7.317,0.188-9.38-5.441
				c7.127-3.939,14.445-8.067,21.762-12.194c4.877-2.814,6.379-6.566,4.313-11.632c-4.313,0.375-8.816,0.938-13.693,1.501
				c1.498-4.128,4.503-6.192,7.878-8.256c6.944-4.126,13.884-8.629,20.637-12.945c0.938-0.562,1.689-1.5,2.627-2.25
				c-0.187-0.375-0.374-0.563-0.374-0.938c-1.315,0.375-2.627,0.75-3.943,0.938c-0.748,0.187-1.499,0.187-2.25,0.187
				c0-0.938-0.187-2.062,0.187-2.626c3.001-3.002,6.193-5.816,9.568-8.63c-2.814-2.062-1.125-4.126,1.502-6.003
				c2.25-1.688,4.69-3.189,6.754-5.065c3.564-3.189,6.753-6.566,10.695-10.506c2.063,1.501,5.251,3.189,7.505,5.628
				c4.689,5.254,10.506,8.256,17.071,10.319c3.938,1.313,8.065,2.627,11.63,4.878c3.001,1.688,5.066,4.69,8.443,7.692
				c-3.566,0.938-6.004,1.5-9.194,2.438c5.628,2.064,10.51,3.94,13.511,9.006c-7.131-0.375-13.133-5.628-20.076-3.564
				c-0.188,0.562-0.375,1.125-0.748,1.688c13.133,8.254,26.267,16.321,39.207,24.577c-0.187,0.562-0.373,1.125-0.561,1.688
				c-5.814-0.75-11.635-1.501-17.262-2.064c-1.312-0.188-2.814,0.375-4.127,0.563c0,0.563,0,0.938,0,1.501
				c5.254,1.501,10.506,3.189,15.76,4.69c2.438,0.75,4.878,1.126,7.128,1.876c0.938,0.375,1.503,1.125,2.254,1.876
				c-0.751,0.563-1.503,1.501-2.44,1.501c-5.439,0.75-10.691,1.313-16.134,1.876c-1.503,0.188-2.813,0.375-4.315,1.126
				c6.379,0.562,12.57,2.064,17.637,6.19c4.877,3.752,10.505,6.754,13.884,12.759c-5.628,2.062-10.319,1.688-15.009-0.188
				c-3.939-1.688-7.316-0.562-10.885,2.25c12.01,4.316,23.643,9.007,31.146,20.266c-4.88,2.25-9.006,1.125-13.51-0.188
				c-7.879-2.627-15.569-5.442-23.451-7.505c-6.189-1.689-12.755-2.254-19.135-3.379c-4.131-0.752-7.883,1.875-7.883,6.564
				c0,8.816,3.565,16.135,10.697,21.764c3.188,2.439,6.188,5.254,9.565,8.256c-4.315,1.875-7.505,0.75-10.883-0.564
				c-5.063-2.062-10.128-4.125-15.196-6.188C264.861,297.604,264.672,297.98,264.484,298.168L264.484,298.168z M208.389,236.818
				c-0.187,0.563-0.374,0.938-0.374,1.501c1.312,1.126,2.814,3.565,3.939,3.377c3.939-0.75,7.882-2.251,11.821-3.564
				c0.561-0.188,1.125-1.689,0.938-2.439c0-0.563-1.315-1.313-2.063-1.313C217.96,235.13,213.27,236.068,208.389,236.818z
				 M299.379,255.955c3.005,0.188,5.066-1.124,5.255-3.377c0.187-2.627-2.813-5.253-6.753-5.253c-2.439,0-4.877,0-5.629,3.002
				C291.688,252.578,295.816,255.77,299.379,255.955z M285.873,250.889v-0.187c0.562,0,1.124,0.187,1.502,0
				c1.498-0.938,2.812-1.876,4.312-2.814c-1.125-1.313-2.438-3.565-3.565-3.565c-3.562,0-7.126,0.938-10.692,1.501
				c-0.562,0.188-1.311,1.313-1.125,1.876c0,0.562,1.125,1.312,1.69,1.5C280.618,249.951,283.245,250.327,285.873,250.889z
				 M227.9,215.243c-2.627-2.25-3.752-4.127-5.441-4.502c-3.375-0.75-8.252,2.064-7.504,3.564c0.938,2.251,3.005,5.816,4.503,5.628
				C222.085,219.747,224.526,217.495,227.9,215.243z M235.218,255.955c0-3.564-2.44-6.754-5.815-7.504c-0.938-0.188-2.253,0-3,0.562
				c-0.565,0.375-0.565,1.875-0.191,2.627c1.315,2.625,2.814,5.064,4.503,7.688c0.564,0.751,1.876,1.688,2.253,1.313
				c0.748-0.377,1.499-1.502,1.876-2.439C235.218,257.268,235.031,256.329,235.218,255.955L235.218,255.955z M243.66,195.92
				c-1.688-0.562-3.564-1.876-4.125-1.5c-2.814,2.063-5.441,4.502-7.881,7.129c-0.561,0.562-0.561,2.251-0.188,2.626
				c0.751,0.563,2.25,0.75,3.001,0.376c2.627-1.688,5.067-3.564,7.504-5.44C242.536,198.546,242.722,197.608,243.66,195.92z
				 M275.182,214.869c0.748-0.563,2.813-1.314,3.188-2.626c0.751-2.064-2.627-5.253-5.257-4.69
				c-2.062,0.375-5.627,2.062-5.627,3.188C267.484,214.681,271.428,213.931,275.182,214.869z M259.607,232.691
				c-0.373-3.564-0.752-6.754-4.125-6.378c-1.504,0-3.566,2.063-4.131,3.752c-0.752,1.876,3.379,5.252,6.006,4.877
				C258.482,234.567,259.234,233.254,259.607,232.691z M252.667,258.956c0.748-0.751,2.25-1.876,2.624-3.377
				c0.564-2.063-3.562-5.628-5.815-4.876c-0.938,0.375-2.063,2.062-2.25,3.376C247.039,256.895,248.538,258.771,252.667,258.956
				L252.667,258.956z M248.351,211.116c2.25-0.75,4.316-0.938,6.192-2.063c0.939-0.562,1.125-2.062,1.686-3.19
				c-0.938-0.562-2.062-1.5-3-1.312c-2.062,0.375-3.938,1.125-5.814,2.064c-0.938,0.562-1.312,1.688-2.063,2.626
				C246.288,209.991,247.413,210.553,248.351,211.116L248.351,211.116z M231.466,206.051c-2.063,1.876-3.378,3.189-4.877,4.69
				c1.312,1.314,2.437,3.002,3.939,3.564c1.876,0.563,5.255-2.626,4.69-4.502C235.031,208.49,233.342,207.739,231.466,206.051z
				 M252.289,190.292c-3.938,0.188-8.255,2.814-7.69,4.502c0.187,0.75,1.876,1.688,3.001,1.688c3.001,0.188,6.753-2.438,6.38-4.314
				C253.792,191.23,252.477,190.479,252.289,190.292z M291.312,221.81c0.188,0.188,0.562,0.375,0.752,0.563
				c0.748-0.938,1.312-1.876,2.062-2.814c-2.254-0.938-4.503-1.876-6.753-2.626c-0.378-0.188-1.314,1.312-1.876,2.062
				c1.876,0.938,3.562,1.877,5.438,2.814C291.127,221.81,291.312,221.81,291.312,221.81L291.312,221.81z M258.296,210.929
				c3.188-0.376,6.565,0,7.504-3.752c0.188-0.562-1.503-2.251-2.627-2.438C260.92,204.174,258.669,206.989,258.296,210.929z
				 M244.973,256.707c-1.499-2.066-2.814-3.566-3.939-5.256c-0.751,1.127-1.876,2.064-1.876,3.189
				c-0.374,2.064,0.187,4.502,2.814,4.688C242.722,259.331,243.474,258.02,244.973,256.707z M247.6,221.81
				c-1.499,1.876-3.375,3.377-3.188,3.94c0.751,1.313,2.25,2.439,3.565,3.564c0.938-1.125,2.437-2.251,2.437-3.377
				C250.414,224.624,248.915,223.499,247.6,221.81z M260.357,195.357c1.688-1.501,2.813-2.439,3.754-3.377
				c-1.125-0.75-2.063-2.25-3.191-2.25c-1.312,0-2.438,1.5-3.562,2.25C258.296,192.918,259.044,193.856,260.357,195.357
				L260.357,195.357z M241.034,230.628c0.377-0.751,0.938-1.313,1.315-2.064c-1.315-0.75-2.44-1.688-3.752-2.063
				c-1.315-0.375-2.814,0.188-4.129,0.188c0.75,1.126,1.315,2.627,2.44,3.189C238.032,230.628,239.722,230.439,241.034,230.628z
				 M265.234,192.918c0,0.563,0,0.938,0,1.501c2.062,0.187,4.315,0.375,6.381,0.562c0-0.938,0.188-2.064-0.379-2.438
				C269.175,190.479,267.111,191.417,265.234,192.918z M236.721,187.29c-0.377-0.188-0.751-0.562-1.129-0.75
				c-1.686,1.313-3.562,2.626-5.251,3.94c0.187,0.562,0.374,0.938,0.751,1.5c1.312-0.375,3.001-0.562,4.125-1.5
				C235.969,189.916,236.156,188.416,236.721,187.29L236.721,187.29z"/>
		</g>
		<g id="svg_3">
			<path fill="#FFFFFF" d="M249.853,447.595c-109.809,0-199.145-89.335-199.145-199.144c0-109.809,89.336-199.144,199.145-199.144
				c109.808,0,199.142,89.335,199.142,199.144C448.995,358.26,359.661,447.595,249.853,447.595z M249.853,62.245
				c-102.674,0-186.207,83.532-186.207,186.206c0,102.675,83.532,186.207,186.207,186.207c102.674,0,186.204-83.531,186.204-186.207
				C436.057,145.777,352.527,62.245,249.853,62.245z"/>
		</g>
		<g id="svg_4">
			<path fill="#FFFFFF" d="M110.084,261.02c-11.821-1.875-14.822,16.514-2.814,18.39
				C119.274,281.283,121.901,262.896,110.084,261.02z"/>
		</g>
		<g id="svg_5">
			<path fill="#FFFFFF" d="M397.873,261.02c-11.816-1.875-14.816,16.514-2.812,18.39C406.88,281.283,409.881,262.896,397.873,261.02
				z"/>
		</g>
		<g id="svg_6">
			<g id="svg_7">
				<path fill="#FFFFFF" d="M106.769,203.61c-3.188,0.938-5.251,2.814-6.002,6.378c-0.938,3.564,0.751,8.254,4.69,9.192
					c3.565,0.938,6.188-2.25,8.065-4.877l2.066-3.002c4.126-5.816,8.816-9.944,16.32-8.068c8.256,1.876,12.759,9.756,10.692,18.011
					c-1.686,7.317-8.629,11.82-16.134,11.069l0.188-6.003c5.067,1.313,9.571-1.876,10.695-6.754
					c1.125-4.878-2.062-9.38-6.943-10.506c-4.877-1.126-7.878,2.251-10.506,5.816l-2.062,2.814c-3.378,4.69-7.504,8.63-13.884,7.129
					c-7.317-1.688-10.318-9.38-8.629-16.134c1.125-5.065,4.69-8.63,9.754-10.131L106.769,203.61z"/>
				<path fill="#FFFFFF" d="M128.094,234.012c-0.59,0.001-1.187-0.029-1.787-0.089l-1.503-0.15l0.297-9.536l1.959,0.508
					c3.976,1.024,7.765-1.437,8.714-5.553c0.89-3.857-1.628-7.62-5.731-8.566c-3.56-0.819-5.979,1.317-8.84,5.2l-2.06,2.811
					c-2.717,3.771-6.602,8.114-12.511,8.114c-0.986,0-2.012-0.124-3.048-0.367c-3.46-0.799-6.273-2.824-8.129-5.854
					c-2.148-3.509-2.768-7.973-1.699-12.246c1.215-5.475,5.179-9.605,10.864-11.291l1.5-0.444l2.714,8.139l-1.609,0.474
					c-2.83,0.833-4.289,2.376-4.875,5.16c-0.454,1.733-0.176,3.678,0.709,5.154c0.469,0.783,1.331,1.789,2.773,2.131
					c0.325,0.085,0.612,0.124,0.89,0.124c2.083,0.001,3.941-2.207,5.484-4.366l2.051-2.979c3.054-4.305,7.407-9.226,14.135-9.226
					c1.251,0,2.567,0.17,3.91,0.506c4.258,0.967,7.843,3.49,10.057,7.094c2.307,3.755,2.951,8.329,1.812,12.879
					C142.496,228.912,135.881,234.012,128.094,234.012z M128.214,228.2l-0.08,2.577c6.254-0.017,11.552-4.082,12.891-9.895
					c0.934-3.729,0.426-7.422-1.421-10.429c-1.756-2.857-4.615-4.86-8.053-5.641c-1.12-0.281-2.172-0.418-3.159-0.418
					c-4.148,0-7.583,2.346-11.483,7.844l-2.054,2.982c-1.343,1.881-4.103,5.745-8.132,5.745h-0.001
					c-0.555,0-1.119-0.074-1.675-0.221c-1.971-0.469-3.631-1.719-4.762-3.607c-1.336-2.229-1.741-5.057-1.081-7.561
					c0.698-3.323,2.518-5.626,5.533-6.948l-0.671-2.014c-3.774,1.561-6.293,4.501-7.161,8.411c-0.858,3.429-0.365,7.081,1.309,9.814
					c1.392,2.273,3.503,3.792,6.104,4.394c4.608,1.081,8.065-0.749,12.208-6.499l2.071-2.826c2.39-3.242,5.324-6.697,9.953-6.697
					c0.721,0,1.469,0.088,2.221,0.262c5.87,1.354,9.452,6.821,8.155,12.445C137.743,225.055,133.243,228.539,128.214,228.2z"/>
			</g>
			<g id="svg_8">
				<path fill="#FFFFFF" d="M136.974,163.025l-16.134-9.755l3.001-5.065l40.149,24.389l-3.001,5.066l-19.325-11.632l-11.63,19.136
					l19.325,11.631l-3.004,5.066l-40.146-24.389l3.001-5.065l16.133,9.756L136.974,163.025L136.974,163.025z"/>
				<path fill="#FFFFFF" d="M146.911,204.09l-42.909-26.068l4.648-7.846l16.149,9.766l9.951-16.373l-16.119-9.745l4.652-7.853
					l42.914,26.069l-4.646,7.843l-19.34-11.642l-9.951,16.373l19.31,11.622L146.911,204.09z M108.415,176.919l37.382,22.71
					l1.351-2.278l-19.34-11.64l13.31-21.9l19.31,11.622l1.356-2.288l-37.385-22.709l-1.35,2.279l16.149,9.765l-13.311,21.9
					l-16.118-9.747L108.415,176.919z"/>
			</g>
			<g id="svg_9">
				<path fill="#FFFFFF" d="M170.68,149.956l2.814,12.57l-5.064,3.752l-11.443-52.531l47.276,25.514l-5.064,3.752l-11.257-6.191
					L170.68,149.956z M164.678,124.066l4.69,20.074l13.32-9.943L164.678,124.066z"/>
				<path fill="#FFFFFF" d="M167.382,169.067l-12.725-58.416l52.613,28.395l-7.942,5.885l-11.243-6.185l-15.6,11.868l2.818,12.585
					L167.382,169.067z M159.316,116.843l10.162,46.646l2.208-1.636l-2.81-12.556l18.925-14.398l11.27,6.197l2.186-1.619
					L159.316,116.843z M168.355,146.915l-6.088-26.061l23.38,13.153L168.355,146.915z M167.089,127.278l3.292,14.086l9.347-6.979
					L167.089,127.278z"/>
			</g>
			<g id="svg_10">
				<path fill="#FFFFFF" d="M210.078,124.066l4.13-36.771l21.575,30.017l4.313-35.833l6.192-1.688l-6.566,51.967l-21.388-29.83
					l-4.126,36.584l-31.52-42.024l6.192-1.688L210.078,124.066L210.078,124.066z"/>
				<path fill="#FFFFFF" d="M214.358,138.741l-34.393-43.188l9.569-2.609l19.402,26.789l4.132-36.793l21.604,30.057l3.947-32.792
					l9.577-2.611l-8.386,53.457l-20.341-24.763L214.358,138.741z M185.411,97.421l27.646,36.861l4.141-36.714l21.436,29.896
					l5.746-45.478l-2.809,0.766l-4.679,38.875L215.346,91.65l-4.127,36.749l-22.993-31.745L185.411,97.421z"/>
			</g>
			<g id="svg_11">
				<path fill="#FFFFFF" d="M261.296,117.875l-6.942,10.882l-6.188-0.751l28.702-45.401l15.76,51.404l-6.188-0.75l-3.752-12.382
					L261.296,117.875z M275.182,95.361l-10.697,17.635l16.514,2.252L275.182,95.361z"/>
				<path fill="#FFFFFF" d="M294.9,135.915l-9.705-1.177l-3.758-12.402l-19.338-2.714l-6.934,10.865l-9.738-1.183l31.951-50.538
					L294.9,135.915z M287.68,131.78l2.672,0.323l-14-45.659l-25.453,40.264l2.642,0.32l6.954-10.899l23.439,3.289L287.68,131.78z
					 M283.247,117.188l-21.425-2.921l13.88-22.883L283.247,117.188z M267.146,111.727l11.598,1.582l-4.086-13.969L267.146,111.727z"
					/>
			</g>
			<g id="svg_12">
				<path fill="#FFFFFF" d="M324.958,151.457l-6.192-3.376l-2.812-24.014l-2.063-1.125l-9.379,17.447l-5.066-2.814l22.14-41.274
					l6.19,3.378c3.754,1.876,7.506,4.126,9.94,7.691c2.44,3.94,2.255,8.818,0.188,12.758c-3.188,6.003-9.754,8.63-16.135,6.191
					L324.958,151.457z M315.952,118.625l1.688,0.938c5.25,2.814,11.442,4.878,15.008-1.688c3.375-6.378-2.254-10.693-7.315-13.507
					l-1.312-0.751L315.952,118.625z"/>
				<path fill="#FFFFFF" d="M326.961,154.39l-9.703-5.291l-2.792-23.816l-9.309,17.314l-7.896-4.383L320.926,94.1l7.622,4.157
					c3.652,1.825,7.804,4.25,10.502,8.199c2.636,4.254,2.729,9.756,0.284,14.421c-2.648,4.989-7.426,7.963-12.779,7.963
					c-0.959,0-1.92-0.097-2.873-0.289L326.961,154.39z M320.273,147.06l2.684,1.462l-3.134-24.68l2.521,0.965
					c1.391,0.53,2.805,0.798,4.211,0.798c4.139,0,7.846-2.332,9.92-6.237c1.912-3.649,1.862-7.923-0.137-11.147
					c-2.234-3.268-5.787-5.346-9.289-7.097l-4.812-2.625l-20.616,38.435l2.241,1.245l9.375-17.437l4.224,2.306L320.273,147.06z
					 M325.936,123.855L325.936,123.855c-3.324-0.001-6.763-1.637-9.059-2.867l-3.104-1.724l9.608-17.876l2.754,1.576
					c8.317,4.623,10.996,9.897,7.944,15.667C332.193,122.103,329.456,123.855,325.936,123.855z M318.133,117.985l0.294,0.163
					c1.97,1.054,4.911,2.471,7.509,2.471l0,0c2.311,0,3.99-1.117,5.293-3.517c2.14-4.04,0.113-7.52-6.566-11.259L318.133,117.985z"
					/>
			</g>
			<g id="svg_13">
				<path fill="#FFFFFF" d="M362.916,146.765L362.916,146.765l-27.768,14.634l-3.754-4.69l44.467-22.513l-19.139,35.458
					l39.023-10.13L363.1,197.233l-3.752-4.69l21.016-23.451v-0.188l-33.771,8.63L362.916,146.765z"/>
				<path fill="#FFFFFF" d="M363.055,199.759l-5.822-7.277l18.597-20.75l-32.374,8.273l15.577-29.363l-24.31,12.81l-5.832-7.289
					l50.848-25.744l-19.827,36.735l40.464-10.504L363.055,199.759z M361.471,192.601l1.684,2.104l27.97-32.311l-37.585,9.757
					l18.449-34.181l-38.084,19.282l1.674,2.092l31.227-16.456l-17.063,32.172l32.245-8.241v2.889L361.471,192.601z"/>
			</g>
			<g id="svg_14">
				<path fill="#FFFFFF" d="M379.676,213.053l-12.572-3.002l-1.312-6.191l52.344,12.382l-43.526,31.519l-1.312-6.191l10.507-7.504
					L379.676,213.053L379.676,213.053z M405.564,218.681l-20.263-4.502l3.188,16.322L405.564,218.681z"/>
				<path fill="#FFFFFF" d="M373.542,250.529l-2.046-9.66l10.518-7.515l-3.725-18.97l-12.557-2.999l-2.055-9.688l58.268,13.783
					L373.542,250.529z M375.098,242.271l0.577,2.721l38.652-27.987l-46.423-10.982l0.568,2.693l12.59,3.006l4.525,23.055
					L375.098,242.271z M387.38,233.238l-4.137-21.175l26.283,5.842L387.38,233.238z M387.365,216.294l2.236,11.468l11.997-8.305
					L387.365,216.294z"/>
			</g>
		</g>
		<g id="svg_15">
			<g id="svg_16">
				<path fill="#FFFFFF" d="M157.925,305.107l16.885,23.45l-4.881,3.565l-12.942-18.01l-12.195,8.814l12.569,17.448l-4.877,3.565
					l-12.572-17.449L123.405,338.5l12.946,18.01l-4.881,3.564l-16.885-23.45L157.925,305.107L157.925,305.107z"/>
				<path fill="#FFFFFF" d="M131.259,361.393l-17.982-24.976l44.858-32.621l17.98,24.972l-6.396,4.671l-12.945-18.013l-10.673,7.719
					l12.565,17.442l-6.392,4.672l-12.573-17.45l-14.992,10.904l12.945,18.008L131.259,361.393z M115.892,336.837l15.787,21.927
					l3.366-2.459l-12.946-18.012l18.024-13.111l12.57,17.448l3.363-2.459l-12.571-17.45l13.715-9.918l12.939,18.008l3.366-2.459
					l-15.79-21.931L115.892,336.837z"/>
			</g>
			<g id="svg_17">
				<path fill="#FFFFFF" d="M178.185,332.311l6.379,4.317l-1.876,22.326l20.637-9.759l6.379,4.315l-27.203,12.568l-2.254,32.458
					l-6.189-4.132l1.876-25.325l-23.264,10.883l-6.192-4.127l29.831-13.884L178.185,332.311L178.185,332.311z"/>
				<path fill="#FFFFFF" d="M181.071,400.213l-7.988-5.328l1.798-24.272L152.59,381.04l-8.022-5.346l30.84-14.354l1.945-30.724
					l8.193,5.542l-1.787,21.251l19.648-9.289l8.2,5.546L183.398,366.7L181.071,400.213z M175.034,393.934l4.39,2.929l2.179-31.397
					l26.199-12.104l-4.56-3.086l-21.625,10.224l1.966-23.399l-4.566-3.089l-1.807,28.562l-28.822,13.413l4.363,2.907l24.238-11.338
					L175.034,393.934z"/>
			</g>
			<g id="svg_18">
				<path fill="#FFFFFF" d="M206.703,408.292l-6.379-1.688l14.257-51.778l7.504,2.062c15.947,4.316,19.325,11.258,16.885,20.828
					c-3.001,10.879-12.568,12.756-22.326,10.128l-3.752-0.938L206.703,408.292L206.703,408.292z M214.395,380.715l2.062,0.562
					c6.566,1.875,14.071,2.627,16.321-5.629c2.253-8.064-5.251-11.257-11.63-12.941l-1.689-0.564L214.395,380.715L214.395,380.715z"
					/>
				<path fill="#FFFFFF" d="M207.349,409.436l-8.182-2.168l14.758-53.596l8.409,2.312c14.974,4.051,20.386,10.821,17.545,21.961
					c-2.116,7.677-7.733,11.895-15.82,11.895c-2.397,0-4.975-0.365-7.659-1.092l-2.859-0.715L207.349,409.436z M201.479,405.94
					l4.578,1.213l6.185-21.378l4.629,1.157c2.542,0.683,4.955,1.028,7.188,1.028c5.069,0,11.614-1.823,14.007-10.497
					c2.588-10.149-2.112-15.854-16.226-19.674l-6.604-1.812L201.479,405.94z M223.732,383.438
					C223.732,383.438,223.734,383.438,223.732,383.438c-2.106,0-4.571-0.411-7.532-1.258l-2.957-0.807l5.571-20.438l2.63,0.882
					c3.841,1.014,9.29,2.848,11.59,6.866c1.188,2.073,1.405,4.502,0.646,7.218C232.319,380.898,228.971,383.438,223.732,383.438z
					 M215.546,380.057l1.158,0.314c2.803,0.802,5.099,1.188,7.029,1.188c4.409,0,6.995-1.957,8.141-6.157
					c0.628-2.25,0.475-4.142-0.467-5.785c-1.951-3.41-6.926-5.062-10.499-6.008l-0.806-0.268L215.546,380.057z"/>
			</g>
			<g id="svg_19">
				<path fill="#FFFFFF" d="M283.996,414.485l-8.066,0.374l-17.072-21.949l-2.813,0.188l1.126,22.699l-6.754,0.378l-2.814-53.659
					l8.068-0.373c4.689-0.188,9.939-0.373,14.26,1.688c4.688,2.438,7.504,7.318,7.689,12.383c0.378,7.689-4.312,14.443-12.195,15.76
					L283.996,414.485z M255.855,387.654l2.062-0.187c6.754-0.375,14.258-2.062,13.696-10.507c-0.377-8.439-8.441-9.192-15.008-8.819
					h-1.877L255.855,387.654L255.855,387.654z"/>
				<path fill="#FFFFFF" d="M249.526,417.16l-2.913-55.537l9.012-0.42c1.369-0.055,2.782-0.109,4.202-0.109
					c3.051,0,7.001,0.217,10.503,1.892c4.878,2.534,8.018,7.586,8.225,13.19c0.391,7.939-4.244,14.472-11.429,16.387l18.789,22.773
					l-10.429,0.483l-17.064-21.941l-1.396,0.091l1.125,22.715L249.526,417.16z M248.586,363.409l2.715,51.774l4.883-0.271
					l-1.125-22.691l4.231-0.282l17.08,21.961l5.708-0.267l-18.414-22.321l1.604-0.269c7.088-1.18,11.78-7.263,11.412-14.789
					c-0.183-4.945-2.937-9.383-7.188-11.593c-3.135-1.499-6.812-1.692-9.666-1.692c-1.396,0-2.783,0.056-4.12,0.107L248.586,363.409
					z M254.975,388.68l-1.238-21.474h2.871c0.771-0.044,1.617-0.073,2.469-0.073c8.65,0,13.188,3.292,13.479,9.787
					c0.195,2.932-0.527,5.355-2.15,7.189c-3.008,3.398-8.533,4.077-12.43,4.293L254.975,388.68z M255.727,369.082l1.01,17.552
					l1.098-0.1c3.594-0.201,8.622-0.796,11.165-3.668c1.295-1.464,1.849-3.374,1.683-5.841c-0.244-5.479-3.933-8.019-11.604-8.019
					c-0.813,0-1.625,0.026-2.414,0.073L255.727,369.082L255.727,369.082z"/>
			</g>
			<g id="svg_20">
				<path fill="#FFFFFF" d="M281.557,359.893l27.202-9.944l2.067,5.815l-20.828,7.504l5.066,14.07l20.262-7.318l2.064,5.818
					l-20.264,7.314l6.939,19.139l20.826-7.505l2.063,5.813l-27.203,9.944L281.557,359.893L281.557,359.893z"/>
				<path fill="#FFFFFF" d="M299.193,411.748l-18.836-52.417l28.968-10.593l2.696,7.593l-20.822,7.499l4.432,12.307l20.266-7.317
					l2.692,7.586l-20.258,7.312l6.3,17.372l20.835-7.504l2.688,7.577L299.193,411.748z M282.755,360.453l17.565,48.888l25.443-9.304
					l-1.438-4.049l-20.82,7.501l-7.579-20.899l20.27-7.315l-1.438-4.05l-20.256,7.314l-5.703-15.837l20.831-7.504l-1.437-4.046
					L282.755,360.453z"/>
			</g>
			<g id="svg_21">
				<path fill="#FFFFFF" d="M338.029,341.316c-3.564-1.502-6.758-1.314-9.944,1.125c-3.379,2.627-5.442,7.69-2.627,11.442
					c2.627,3.379,7.131,2.629,10.694,1.689l3.938-1.125c7.878-2.254,15.009-2.254,20.449,4.877
					c5.815,7.69,4.126,18.011-3.563,23.824c-6.942,5.256-16.136,4.316-22.326-1.875l4.504-5.252
					c3.563,4.688,9.939,5.252,14.443,1.877c4.689-3.565,4.877-9.944,1.502-14.259c-3.564-4.688-8.629-3.752-13.511-2.439
					l-3.938,0.938c-6.564,1.688-12.944,2.25-17.637-3.752c-5.25-6.94-2.25-15.761,4.131-20.638
					c4.689-3.565,10.506-4.315,15.946-1.876L338.029,341.316z"/>
				<path fill="#FFFFFF" d="M346.98,387.51c-4.787,0-9.4-1.979-12.992-5.569l-0.614-0.61l5.823-6.795l0.703,0.924
					c1.77,2.328,4.435,3.661,7.312,3.661c2.093,0,4.104-0.68,5.822-1.969c1.895-1.438,3.061-3.435,3.358-5.759
					c0.322-2.493-0.418-5.104-2.031-7.17c-1.637-2.15-3.688-3.147-6.457-3.147c-1.952,0-4.071,0.497-6.071,1.035l-3.965,0.944
					c-3.128,0.804-5.5,1.164-7.677,1.164c-4.586,0-8.156-1.718-10.916-5.254c-5.816-7.685-2.125-17.047,4.299-21.958
					c4.961-3.769,11.262-4.512,16.896-1.987l0.811,0.362l-2.723,7.179l-0.896-0.377c-3.449-1.452-6.199-1.146-9.01,1.004
					c-3.051,2.369-4.855,6.927-2.447,10.14c1.102,1.411,2.707,2.104,4.902,2.104c1.688,0,3.455-0.409,4.804-0.765l3.921-1.12
					c3.213-0.918,5.972-1.363,8.428-1.363c5.389,0,9.65,2.149,13.026,6.574c6.118,8.099,4.507,18.903-3.744,25.146
					C354.423,386.26,350.771,387.51,346.98,387.51z M335.941,381.215c3.138,2.855,7.023,4.419,11.039,4.419
					c3.379,0,6.639-1.118,9.431-3.229c7.399-5.597,8.854-15.271,3.382-22.513c-3.035-3.979-6.702-5.834-11.531-5.834
					c-2.277,0-4.867,0.423-7.91,1.293l-3.938,1.125c-1.481,0.39-3.399,0.83-5.304,0.83c-2.772,0-4.924-0.959-6.394-2.845
					c-3.146-4.19-1.046-9.776,2.791-12.76c3.106-2.38,6.3-2.891,9.979-1.604l1.404-3.709c-4.785-1.839-10-1.067-14.182,2.106
					c-5.7,4.359-9.023,12.614-3.946,19.321c2.403,3.082,5.404,4.521,9.429,4.521c2.013,0,4.242-0.344,7.227-1.109l3.954-0.939
					c2.1-0.565,4.364-1.095,6.532-1.095c3.359,0,5.959,1.27,7.94,3.879c1.913,2.444,2.796,5.567,2.408,8.556
					c-0.36,2.794-1.812,5.283-4.089,7.017c-2.051,1.537-4.455,2.348-6.953,2.348c-3.089,0-5.971-1.271-8.064-3.521L335.941,381.215z
					"/>
			</g>
			<g id="svg_22">
				<path fill="#FFFFFF" d="M361.104,313.363c-3.938-0.374-6.754,0.752-9.191,4.126c-2.438,3.564-2.814,9.007,0.938,11.818
					c3.379,2.44,7.694,0.375,10.695-1.688l3.376-2.25c6.943-4.503,13.696-6.566,21.015-1.502c7.879,5.628,9.192,15.945,3.564,23.828
					c-5.066,7.126-14.262,8.815-21.952,4.688l2.813-6.379c4.688,3.564,11.068,2.249,14.447-2.44
					c3.375-4.688,1.875-10.88-2.812-14.259c-4.691-3.377-9.381-1.123-13.698,1.69l-3.377,2.062
					c-5.629,3.38-11.815,6.002-17.823,1.502c-7.127-5.065-6.754-14.445-2.062-21.015c3.563-4.877,8.819-7.126,14.635-6.564
					L361.104,313.363L361.104,313.363z"/>
				<path fill="#FFFFFF" d="M378.148,355.539c-3.082,0-6.213-0.805-9.047-2.327l-0.767-0.41l3.646-8.259l0.945,0.718
					c1.585,1.206,3.449,1.843,5.393,1.843c2.998,0,5.886-1.526,7.729-4.082c2.941-4.092,1.799-9.777-2.602-12.948
					c-1.418-1.021-2.881-1.521-4.467-1.521c-2.832,0-5.723,1.634-8.172,3.231l-3.4,2.078c-3.327,1.996-7.277,4.032-11.417,4.032
					c-2.663,0-5.171-0.866-7.458-2.582c-3.072-2.181-5.034-5.291-5.653-8.979c-0.739-4.418,0.495-9.273,3.39-13.328
					c3.687-5.045,9.258-7.563,15.488-6.956l0.928,0.091l-0.729,8.244l-0.941-0.09c-3.668-0.348-6.147,0.706-8.344,3.743
					c-2.206,3.229-2.541,8.058,0.74,10.521c2.295,1.655,5.566,1.062,9.602-1.711l3.387-2.258c4.86-3.152,8.91-4.617,12.75-4.617
					c3.231,0,6.279,1.022,9.317,3.127c8.217,5.868,9.844,16.677,3.798,25.144C388.966,352.878,383.82,355.539,378.148,355.539z
					 M370.764,351.951c2.353,1.122,4.889,1.712,7.387,1.712c5.058,0,9.646-2.375,12.584-6.511
					c5.429-7.602,3.988-17.279-3.346-22.521c-6.002-4.152-11.713-3.823-19.959,1.524l-3.365,2.244
					c-4.724,3.245-8.801,3.811-11.767,1.666c-4.194-3.145-3.88-9.132-1.163-13.105c2.385-3.302,5.284-4.729,9.114-4.595l0.399-4.516
					c-5.256-0.237-9.724,1.955-12.859,6.25c-2.562,3.593-3.708,8.05-3.061,11.92c0.533,3.186,2.23,5.875,4.91,7.775
					c2,1.499,4.069,2.221,6.352,2.221c3.682,0,7.346-1.9,10.445-3.763l3.371-2.062c2.659-1.732,5.85-3.521,9.174-3.521
					c1.965,0,3.836,0.63,5.562,1.872c5.254,3.785,6.584,10.623,3.026,15.569c-2.191,3.045-5.65,4.861-9.25,4.861
					c-1.969,0-3.866-0.539-5.555-1.563L370.764,351.951z"/>
			</g>
		</g>
	</g>
</g>
</svg>
